<?xml version="1.0" encoding="UTF-8"?><svg id="Layer_1" xmlns="http://www.w3.org/2000/svg" viewBox="0 0 49.72 17.89"><defs><style>.cls-1{fill:#efaf48;}.cls-2{fill:#f0aa39;}.cls-3{fill:#f6a728;}.cls-4{fill:#f7a828;}.cls-5{fill:#eeb150;}.cls-6{fill:#f1b450;}.cls-7{fill:#eeaf4a;}.cls-8{fill:#efaf47;}.cls-9{fill:#f5a729;}.cls-10{fill:#f9a41a;}.cls-11{fill:#e2f6fb;}.cls-12{fill:#f2b655;}.cls-13{fill:#1a4f8c;}.cls-14{fill:#fefdfa;}.cls-15{fill:#326196;}.cls-16{fill:#f1b451;}.cls-17{fill:#f0b455;}.cls-18{fill:#0d4c93;}.cls-19{fill:#fee8b6;}.cls-20{fill:#fce8b9;}.cls-21{fill:#f1b14b;}.cls-22{fill:#114e92;}.cls-23{fill:#104b8d;}.cls-24{fill:#fef7e4;}.cls-25{fill:#f1ad3f;}.cls-26{fill:#f9a41b;}.cls-27{fill:#fdebc2;}.cls-28{fill:#efb454;}.cls-29{fill:#2d5e94;}.cls-30{fill:#104e92;}.cls-31{fill:#f7a622;}.cls-32{fill:#f2b148;}.cls-33{fill:#f9fcfd;}.cls-34{fill:#f5a92d;}.cls-35{fill:#f1ad40;}.cls-36{fill:#f1b149;}.cls-37{fill:#efac40;}.cls-38{fill:#f0ac3e;}.cls-39{fill:#0f4b8f;}.cls-40{fill:#fefef7;}.cls-41{fill:#fdebc0;}.cls-42{fill:#fefefb;}.cls-43{fill:#f2b552;}.cls-44{fill:#f0ab3b;}.cls-45{fill:#efb14c;}.cls-46{fill:#eea93b;}.cls-47{fill:#f2b551;}.cls-48{fill:#f1b350;}.cls-49{fill:#fdeec9;}.cls-50{fill:#0e4d94;}.cls-51{fill:#fdecc0;}.cls-52{fill:#e9f9fc;}.cls-53{fill:#fde8ba;}.cls-54{fill:#f0af47;}.cls-55{fill:#eeb04c;}.cls-56{fill:#37669c;}.cls-57{fill:#dcecf7;}.cls-58{fill:#104c91;}.cls-59{fill:#f0ac40;}.cls-60{fill:#f4a626;}.cls-61{fill:#f2b756;}.cls-62{fill:#fef8e4;}.cls-63{fill:#2e5d92;}.cls-64{fill:#fdeab9;}.cls-65{fill:#f1b552;}.cls-66{fill:#fefcf4;}.cls-67{fill:#f5a728;}.cls-68{fill:#fdeabb;}.cls-69{fill:#eeb14d;}.cls-70{fill:#fdecc3;}.cls-71{fill:#f5a82a;}.cls-72{fill:#f4a72b;}.cls-73{fill:#fef8e0;}.cls-74{fill:#fdeabd;}.cls-75{fill:#edb255;}.cls-76{fill:#f5a82b;}.cls-77{fill:#f1b14a;}.cls-78{fill:#f1af44;}.cls-79{fill:#fefaed;}.cls-80{fill:#f5a727;}.cls-81{fill:#f6a624;}.cls-82{fill:#fef1d0;}.cls-83{fill:#fef2d1;}.cls-84{fill:#fef3cc;}.cls-85{fill:#295a91;}.cls-86{fill:#f6a725;}.cls-87{fill:#feeec8;}.cls-88{fill:#f1aa37;}.cls-89{fill:#f1b553;}.cls-90{fill:#fef9e7;}.cls-91{fill:#f2b34d;}.cls-92{fill:#fdecc2;}.cls-93{fill:#f2b147;}.cls-94{fill:#edb04b;}.cls-95{fill:#f0af46;}.cls-96{fill:#f0ae44;}.cls-97{fill:#deecf6;}.cls-98{fill:#f0ae41;}.cls-99{fill:#efaa3c;}.cls-100{fill:#235690;}.cls-101{fill:#f6a726;}.cls-102{fill:#fcfdfe;}.cls-103{fill:#f2b048;}.cls-104{fill:#f3b857;}.cls-105{fill:#fef2cf;}.cls-106{fill:#39689d;}.cls-107{fill:#f1b34d;}.cls-108{fill:#f1af43;}.cls-109{fill:#fdebbe;}.cls-110{fill:#f2b859;}.cls-111{fill:#f3b34b;}.cls-112{fill:#f1ae42;}.cls-113{fill:#fcecc5;}.cls-114{fill:#f6a727;}.cls-115{fill:#f1b655;}.cls-116{fill:#175296;}.cls-117{fill:#fde8b3;}.cls-118{fill:#21548d;}.cls-119{fill:#f2af45;}.cls-120{fill:#f3ae40;}.cls-121{fill:#f1ae41;}.cls-122{fill:#f1b554;}.cls-123{fill:#f5a626;}.cls-124{fill:#436d9c;}.cls-125{fill:#f0b351;}.cls-126{fill:#fefcf3;}.cls-127{fill:#f1b045;}.cls-128{fill:#efb04c;}.cls-129{fill:#fefbf2;}.cls-130{fill:#fceac2;}.cls-131{fill:#f9a419;}.cls-132{fill:#fae1ae;}.cls-133{fill:#f2a933;}.cls-134{fill:#f1b95c;}.cls-135{fill:#f8a41b;}.cls-136{fill:#f1b656;}.cls-137{fill:#e7f7fc;}.cls-138{fill:#f6a625;}.cls-139{fill:#fefdf7;}.cls-140{fill:#eeaa3b;}.cls-141{fill:#fefefe;}.cls-142{fill:#235791;}.cls-143{fill:#f0b14b;}.cls-144{fill:#0f4c90;}.cls-145{fill:#f1b249;}.cls-146{fill:#f0b352;}.cls-147{fill:#f0ad41;}.cls-148{fill:#fbfdfe;}.cls-149{fill:#eeae46;}.cls-150{fill:#fef0ca;}.cls-151{fill:#ecab42;}.cls-152{fill:#fdfbf0;}.cls-153{fill:#eeae45;}.cls-154{fill:#f0b350;}.cls-155{fill:#efb351;}.cls-156{fill:#fcedc6;}.cls-157{fill:#fde8bb;}.cls-158{fill:#2a5b91;}.cls-159{fill:#0e4b8f;}.cls-160{fill:#f0ae42;}.cls-161{fill:#daeaf5;}.cls-162{fill:#dcecf6;}.cls-163{fill:#f0ab3c;}.cls-164{fill:#f0b34f;}.cls-165{fill:#efb049;}.cls-166{fill:#f1b044;}.cls-167{fill:#ddeff9;}.cls-168{fill:#f3a930;}.cls-169{fill:#dbecf7;}.cls-170{fill:#3d6b9f;}.cls-171{fill:#f2b95a;}.cls-172{fill:#f8a41c;}.cls-173{fill:#f2b652;}.cls-174{fill:#f6a82a;}.cls-175{fill:#efab3d;}.cls-176{fill:#fef8e5;}.cls-177{fill:#f0b450;}.cls-178{fill:#fef6dd;}.cls-179{fill:#fdeec5;}.cls-180{fill:#f0ab39;}.cls-181{fill:#f0b24e;}.cls-182{fill:#fef4d8;}.cls-183{fill:#f0b048;}.cls-184{fill:#eda736;}.cls-185{fill:#f0a937;}.cls-186{fill:#346498;}.cls-187{fill:#fef1cb;}.cls-188{fill:#f2b450;}.cls-189{fill:#eea734;}.cls-190{fill:#efb24f;}.cls-191{fill:#0f4c91;}.cls-192{fill:#104d91;}.cls-193{fill:#f0b95d;}.cls-194{fill:#eeab3e;}.cls-195{fill:#efa937;}.cls-196{fill:#fafcfd;}.cls-197{fill:#fca414;}.cls-198{fill:#efb24e;}.cls-199{fill:#efa938;}.cls-200{fill:#f0b452;}.cls-201{fill:#f0b85b;}.cls-202{fill:#feeec5;}.cls-203{fill:#f2b44e;}.cls-204{fill:#f2b44f;}.cls-205{fill:#efa836;}.cls-206{fill:#eeab40;}.cls-207{fill:#fce9bd;}.cls-208{fill:#f1b046;}.cls-209{fill:#f8a520;}.cls-210{fill:#efb04b;}.cls-211{fill:#104c90;}.cls-212{fill:#efb251;}.cls-213{fill:#f7a41c;}.cls-214{fill:#feefc8;}.cls-215{fill:#f0b553;}.cls-216{fill:#2d5c91;}.cls-217{fill:#174a83;}.cls-218{fill:#f5a82c;}.cls-219{fill:#f1b24b;}.cls-220{fill:#efad43;}.cls-221{fill:#eeb65d;}.cls-222{fill:#f1b453;}.cls-223{fill:#f3b551;}.cls-224{fill:#23568e;}.cls-225{fill:#0e4d93;}.cls-226{fill:#f1b24c;}</style></defs><path class="cls-141" d="M21.86,0h5.69v17.89h-5.69V0Z"/><path class="cls-172" d="M43.49,3.02h.06s.03,0,.06,0h.06s.03,0,.06,0c.05,0,.1,0,.15,0,.09.17.16.33.21.51t0,.04s.01.08.01.13c0,.02,0,.03,0,.05,0,.02,0,.03,0,.05,0,.02,0,.03,0,.05,0,.04,0,.08,0,.12t.04,0c.12.01.25.02.37.03,0-.02,0-.04,0-.06.01-.08.04-.15.08-.22,0-.01.01-.03.02-.04.1-.18.2-.38.37-.51.07,0,.09,0,.15.02t.07.01q.18.04.23.1c.02.05.02.1.03.15,0,.01,0,.03,0,.04.04.26,0,.52-.04.78.01,0,.02,0,.03.01.07.02.14.05.21.08q.06.03.14.02s.06-.08.09-.12c.12-.18.26-.31.43-.44.01,0,.02-.02.03-.03.05-.03.08-.06.14-.06.06.02.12.05.17.08t.06.03.11.09c.04.26-.05.54-.16.77,0,.01-.01.03-.02.04,0,.01-.01.03-.02.04t-.01.11s.02.03.06.05t.04.03s.03.02.04.03c.01,0,.03.02.04.03.03.02.06.05.09.07.06-.03.1-.05.14-.1.19-.17.44-.32.69-.37.09.02.14.07.2.14.01.01.02.02.04.04q.09.09.1.16c-.05.28-.26.6-.46.79.04.08.09.15.15.22q.06.08.06.12s.03-.01.04-.02c.14-.07.28-.13.43-.17.02,0,.04-.01.06-.02.14-.04.29-.08.44-.04.06.06.1.13.13.21,0,.01.02.03.03.04t.05.11c-.1.27-.4.54-.64.68h-.04s.02.05.03.07c.01.03.02.06.04.09t.02.05s.01.03.02.04c0,.01.01.03.02.04t.01.09s.02,0,.04-.01c.26-.07.71-.12.95.01.04.07.06.13.08.21t.01.04c.02.08.03.15-.01.22-.2.21-.51.35-.78.44,0,.13.01.26.02.4.04,0,.08,0,.12,0,.25.01.65.08.83.26t0,.09s0,.04,0,.06c0,.02,0,.04,0,.06,0,.02,0,.04,0,.06,0,.05,0,.1,0,.15-.3.16-.6.27-.95.27,0,.13-.01.25-.02.38.03,0,.05.02.08.03.21.09.41.18.59.33.01,0,.03.02.04.03t.04.03s.02.02.03.02c.04.05.03.1.02.17q-.05.25-.13.31s-.07.02-.11.03t-.04,0c-.1.02-.19.01-.29.01-.02,0-.04,0-.07,0-.15,0-.29-.01-.43-.06,0,.01,0,.02-.01.03-.02.07-.05.14-.08.21q-.03.06-.02.14s.04.03.08.06c.21.14.46.35.56.58,0,.09-.05.16-.09.23,0,.01-.01.02-.02.04-.03.05-.05.09-.09.13-.27.03-.59-.05-.83-.18q-.06-.03-.11-.03c-.07.03-.1.08-.14.14,0,.01-.02.02-.02.03q-.04.06-.05.14s.04.07.08.1c.17.19.32.45.37.7-.01.07-.06.12-.11.17,0,.01-.02.02-.03.03q-.11.11-.2.12c-.08,0-.14-.03-.22-.06-.01,0-.03-.01-.04-.02-.18-.09-.34-.2-.49-.33t-.08-.03c-.06.03-.1.06-.15.11q-.1.08-.14.08s.02.03.03.05c.11.21.17.42.22.65,0,.01,0,.03,0,.04.02.08.02.15,0,.22-.1.1-.23.16-.35.21-.14,0-.31-.18-.41-.28q-.28-.28-.28-.38c-.11.03-.22.07-.33.12t-.07.01s0,.03.01.04c.04.16.05.3.05.46t0,.07q0,.29-.06.41c-.05.04-.08.05-.14.06-.01,0-.03,0-.04.01-.04,0-.07.02-.11.02t-.05.01s-.04,0-.11-.01c-.22-.18-.42-.53-.45-.81-.02,0-.04,0-.06,0-.03,0-.05,0-.08.01-.01,0-.03,0-.04,0-.08.01-.15.02-.22.01,0,.02,0,.04,0,.06,0,.09-.02.18-.03.27,0,.02,0,.03-.01.05-.04.2-.12.38-.22.56-.07,0-.14,0-.2,0t-.06,0c-.05,0-.1,0-.15,0q-.05-.05-.08-.11s-.02-.03-.02-.05c-.06-.13-.09-.26-.12-.39,0-.02,0-.03-.01-.05t-.01-.05s0-.03-.01-.05c-.01-.08,0-.16,0-.25-.14-.01-.28-.03-.42-.04,0,.03-.01.06-.02.08-.07.27-.24.53-.44.73-.12,0-.21-.01-.32-.06-.02,0-.04-.01-.06-.02q-.05-.02-.08-.06c-.1-.3-.07-.65,0-.95-.01,0-.02,0-.03,0-.08-.02-.15-.06-.22-.09q-.05-.02-.11-.02s-.05.07-.08.11c-.02.02-.03.05-.05.07,0,.01-.02.02-.02.03-.12.18-.32.35-.51.45-.07,0-.12-.04-.18-.07t-.05-.03c-.05-.03-.1-.06-.15-.11-.06-.25.05-.55.15-.78.01-.03.03-.07.04-.1t.02-.05s0-.02.01-.04c-.01,0-.02,0-.03-.01-.07-.04-.13-.09-.19-.14t-.12-.03s-.07.05-.11.09c-.18.14-.47.37-.71.35-.07-.03-.13-.09-.19-.15t-.04-.03s-.02-.02-.03-.03c0,0-.02-.02-.03-.03-.03-.06-.01-.11,0-.17.02-.05.04-.1.06-.15,0-.01.01-.03.02-.04.08-.18.19-.34.33-.48t.02-.07c-.02-.06-.07-.11-.11-.17t-.03-.03s-.04-.06-.07-.08c-.07.01-.13.03-.19.06-.23.11-.52.2-.78.15-.07-.06-.1-.13-.13-.21t-.04-.06c-.03-.07-.02-.1,0-.16.04-.06.09-.12.13-.17l.05-.05c.13-.15.28-.27.45-.38-.02-.09-.06-.18-.09-.27q-.02-.05-.02-.09s-.02,0-.04,0c-.16.03-.31.04-.46.03-.02,0-.05,0-.07,0q-.28,0-.39-.04c-.06-.07-.08-.15-.1-.24,0-.01,0-.02-.01-.04q-.03-.12,0-.18c.2-.23.52-.4.81-.45,0-.02,0-.04,0-.07,0-.03,0-.06-.01-.09,0-.01,0-.03,0-.04,0-.07-.02-.14-.01-.22t-.06,0c-.2,0-.39-.04-.58-.1-.02,0-.03-.01-.05-.02-.05-.02-.09-.03-.13-.05-.01,0-.03-.01-.04-.02-.04-.02-.07-.04-.11-.08-.02-.07-.02-.14-.02-.21,0-.02,0-.04,0-.06q0-.14.07-.2c.07-.03.14-.06.21-.09.01,0,.03,0,.04-.01.21-.07.44-.13.66-.12,0-.02,0-.04,0-.06,0-.03,0-.05,0-.08,0-.01,0-.03,0-.04,0-.08.01-.15.03-.22-.02,0-.05,0-.07,0-.27-.06-.58-.26-.76-.47t0-.08s0-.03,0-.04c.02-.1.06-.2.09-.3h.09v-.04c.13-.02.26-.02.4-.02.04,0,.08,0,.11,0,.13,0,.25,0,.38.02.04-.07.07-.15.09-.23.01-.04.03-.08.04-.11-.01,0-.02-.01-.03-.02-.17-.11-.31-.24-.44-.38,0,0-.02-.02-.03-.03-.05-.06-.08-.11-.11-.18-.02,0-.04-.01-.06-.02,0-.1.02-.16.07-.24,0-.01.01-.02.02-.03.03-.05.06-.1.1-.14.31-.05.61.07.89.19.03.01.06.03.09.04,0-.01,0-.03.01-.04.03-.06.07-.11.11-.16.02-.02.03-.04.05-.06.01-.01.02-.03.04-.04-.03-.07-.07-.12-.12-.17-.13-.16-.22-.33-.3-.53,0-.02-.02-.04-.02-.06-.02-.06-.02-.09,0-.15.04-.05.08-.09.12-.13t.03-.03c.05-.05.08-.08.16-.09.29.05.57.24.77.44.09,0,.14-.05.2-.1.02-.01.04-.03.06-.04.01-.01.03-.02.04-.03-.01-.08-.03-.16-.06-.23-.04-.1-.08-.2-.11-.3,0-.01,0-.03-.01-.04-.01-.04-.02-.09-.03-.13,0-.02,0-.05-.01-.07,0-.08,0-.14.01-.22.07-.07.15-.11.25-.15.01,0,.03-.02.04-.02.05-.02.08-.01.13,0,.24.13.5.38.63.63.1,0,.18-.05.27-.09t.12-.02s0-.03-.01-.04c-.07-.27-.12-.69.01-.94.05-.04.07-.05.13-.06.03-.01.06-.02.1-.03.07-.02.13-.03.21-.02.23.17.41.55.47.81.14,0,.28,0,.42-.02,0-.01,0-.03,0-.04,0-.32.08-.61.23-.89t.06-.02Z"/><path class="cls-18" d="M18.88,6.3c.07,0,.14,0,.21,0,.05,0,.09,0,.14,0h.06c.2,0,.39.03.57.1t.04.02c.31.11.56.31.72.6.02.04.04.08.05.13,0,.01.01.03.02.04.12.34.12.76,0,1.09-.16.33-.4.54-.71.71.03.09.07.18.11.27.01.03.03.06.04.1t.02.05c.15.33.29.65.44.98,0,.01.01.03.02.04.01.03.02.06.04.08.03.06.06.13.09.19.01.02.02.04.03.06t.03.06c.02.07.02.12,0,.19-.05.06-.08.06-.15.07-.03,0-.06,0-.09,0-.02,0-.03,0-.05,0-.03,0-.06,0-.1,0-.05,0-.1,0-.15,0-.03,0-.06,0-.09,0-.01,0-.03,0-.04,0-.08,0-.11,0-.17-.07-.04-.06-.07-.11-.09-.17,0-.02-.02-.04-.03-.06,0-.02-.02-.05-.03-.07-.02-.05-.04-.1-.06-.15,0-.01-.01-.03-.02-.04-.08-.18-.16-.36-.24-.54-.02-.05-.04-.1-.07-.15-.01-.03-.03-.06-.04-.1-.04-.08-.07-.16-.1-.24,0-.02-.01-.03-.02-.05-.01-.03-.02-.06-.03-.09t-.06-.1c-.06-.01-.09-.02-.15-.02-.02,0-.05,0-.07,0-.02,0-.05,0-.07,0t-.04,0s-.08,0-.12,0c-.05,0-.1,0-.16,0-.02,0-.05,0-.07,0-.05,0-.11,0-.16-.01t-.05,0s-.02,0-.03,0t0,.07c0,.21,0,.42,0,.63,0,.11,0,.22,0,.33,0,.1,0,.21,0,.31,0,.04,0,.08,0,.12,0,.06,0,.11,0,.17t0,.05-.06.17c-.07.04-.12.04-.19.04-.01,0-.03,0-.04,0-.03,0-.06,0-.09,0-.04,0-.09,0-.13,0-.03,0-.06,0-.08,0-.01,0-.03,0-.04,0-.06,0-.09,0-.14-.04-.05-.07-.04-.14-.04-.23,0-.02,0-.04,0-.06,0-.06,0-.12,0-.19,0-.04,0-.09,0-.13,0-.12,0-.24,0-.36,0-.08,0-.15,0-.23,0-.01,0-.03,0-.04,0-.03,0-.05,0-.08,0-.24,0-.48,0-.72,0-.21,0-.41,0-.62,0-.24,0-.48,0-.72,0-.03,0-.05,0-.08,0-.01,0-.03,0-.04,0-.09,0-.18,0-.27,0-.12,0-.24,0-.36,0-.04,0-.09,0-.13,0-.06,0-.12,0-.18,0-.02,0-.03,0-.05q0-.12.04-.16c.06-.03.13-.03.19-.04t.05,0s.07,0,.1,0c.04,0,.08,0,.11,0,.31-.03.62-.04.93-.04Z"/><path class="cls-129" d="M40.02,10.39c.07,0,.09.02.13.07.06.08.09.17.13.26.16.34.36.63.61.91.03.04.07.08.1.11.06.07.13.13.21.2.02.01.03.03.05.04.77.65,1.75.93,2.75.86.46-.04.92-.16,1.33-.37t.04-.02c.27-.14.54-.31.76-.52t.07-.03v-.04s.03-.03.07-.06c.37-.31.63-.75.83-1.18,0-.02.02-.04.02-.05,0-.02.01-.03.02-.05.03-.05.06-.08.1-.12.2,0,.41.09.6.17.05.02.1.03.15.05q.13.04.16.1c0,.14-.05.26-.12.38-.02.04-.03.07-.05.11-.18.38-.43.73-.7,1.05-.01.01-.02.03-.03.04-.18.21-.38.4-.59.57-.01,0-.02.02-.03.02-.22.17-.46.31-.7.45-.04.02-.08.04-.12.07-.13.08-.27.13-.42.18-.04.02-.08.03-.13.05-.12.05-.25.08-.37.12-.01,0-.02,0-.04.01-.23.06-.46.1-.7.12-.02,0-.03,0-.05,0-.16.02-.32.02-.48.02-.05,0-.09,0-.14,0-.03,0-.06,0-.09,0-.01,0-.03,0-.04,0q-.1,0-.12-.02s-.08,0-.12-.01c-.31-.03-.6-.09-.9-.18t-.06-.02c-.1-.03-.19-.07-.29-.12-.05-.02-.1-.04-.15-.06-.36-.13-.69-.35-.99-.58-.02-.01-.03-.03-.05-.04-.29-.23-.58-.5-.8-.8,0-.01-.02-.02-.02-.03-.26-.33-.47-.7-.64-1.08,0-.01-.01-.02-.02-.04-.03-.07-.05-.13-.04-.22.07-.07.15-.1.25-.13.01,0,.03,0,.05-.01.05-.02.1-.03.14-.05.05-.02.1-.03.14-.05.03,0,.06-.02.09-.03.06-.02.11-.05.17-.06Z"/><path class="cls-50" d="M22.83,7.53h.07c.4,0,.78.12,1.08.4.4.44.41,1.08.39,1.65,0,.1-.02.2-.04.3,0,.02,0,.03,0,.05-.07.36-.19.71-.5.93-.46.3-1.01.33-1.54.21-.29-.07-.55-.23-.72-.48-.34-.56-.39-1.37-.24-2,.02-.06.03-.12.05-.18,0-.02.01-.05.02-.07.12-.33.35-.56.67-.71.24-.1.5-.11.76-.11Z"/><path class="cls-225" d="M28.83,7.53h.04c.36,0,.67.05.94.31.16.18.25.44.25.68,0,.02,0,.04,0,.07t0,.07s0,.05,0,.08c0,.07,0,.14,0,.21,0,.04,0,.09,0,.13,0,.14,0,.27,0,.41,0,.16,0,.31,0,.47,0,.12,0,.24,0,.36,0,.07,0,.14,0,.22,0,.07,0,.14,0,.2,0,.04,0,.07,0,.11t0,.07s0,.04,0,.06c0,.06-.02.08-.06.13-.17.04-.34-.03-.48-.12-.01,0-.03-.02-.05-.03-.05-.03-.09-.05-.16-.03-.01,0-.03.01-.04.02-.02,0-.03.01-.05.02-.02,0-.03.01-.05.02-.3.1-.58.15-.9.16t-.08,0c-.27,0-.47-.09-.67-.27-.22-.23-.26-.54-.27-.85,0-.02,0-.04,0-.06,0-.24.06-.48.22-.66.27-.25.63-.32.99-.33.11,0,.23-.01.34-.03.15-.02.3-.02.46-.02q0-.26-.09-.49c-.11-.09-.21-.12-.35-.12t-.04,0s-.09,0-.14,0t-.05,0c-.19,0-.38,0-.56.03-.1.01-.2.02-.31.02-.01,0-.03,0-.04,0-.07,0-.1,0-.15-.05-.04-.06-.04-.1-.04-.18t0-.07s0-.05,0-.07c0-.02,0-.05,0-.07q0-.18.03-.22s.09-.04.15-.05c.02,0,.05,0,.07-.01.03,0,.05,0,.08-.01.03,0,.05,0,.08-.01.07-.01.15-.02.22-.03.02,0,.03,0,.05,0,.22-.03.44-.03.66-.04Z"/><path class="cls-50" d="M33.39,7.6h.04s.06,0,.08,0c.04,0,.08,0,.13,0,.03,0,.05,0,.08,0h.07c.08.02.11.04.16.11t.03.1s0,.04.01.06c0,.02,0,.04.01.06,0,.04.02.08.03.12t.01.06c.02.08.05.16.07.24.04.13.07.26.1.4.03.13.07.26.11.39.03.08.05.17.06.26.03.13.06.26.11.39.05.17.09.34.11.51h.08s0-.03,0-.04c.02-.15.05-.29.1-.43.06-.2.11-.4.16-.6.06-.23.12-.46.18-.69.03-.12.07-.25.1-.37t.01-.05c.02-.07.04-.15.05-.22,0-.03.01-.05.02-.08t.02-.07c.02-.06.04-.09.1-.13q.06,0,.14-.01s.03,0,.04,0c.03,0,.06,0,.08,0,.04,0,.08,0,.13,0,.03,0,.05,0,.08,0,.02,0,.05,0,.07,0,.08.01.11.03.16.09.01.09,0,.16-.03.24,0,.02-.01.05-.02.07t-.01.04c-.1.32-.18.64-.26.97-.05.21-.1.42-.16.63,0,.04-.02.07-.03.11,0,.02,0,.04-.01.05-.04.13-.07.27-.1.41-.01.05-.03.1-.05.16-.03.09-.05.18-.07.27q-.28,1.18-.68,1.47c-.07.04-.15.07-.23.09t-.04.01c-.32.1-.87.02-1.17-.11-.06-.06-.06-.1-.06-.18,0-.02,0-.04,0-.06,0-.02,0-.04,0-.06,0-.02,0-.04,0-.06,0-.02,0-.04,0-.06,0-.02,0-.04,0-.06t.03-.08s.08-.03.13-.03c.02,0,.04,0,.06,0,.06,0,.12,0,.18.01.11,0,.22.01.33.01.02,0,.03,0,.05,0,.14,0,.27-.02.37-.11.08-.1.11-.24.15-.36t-.04,0c-.14,0-.24,0-.35-.1-.13-.12-.17-.27-.22-.43,0-.02,0-.03-.01-.05,0-.03-.02-.07-.03-.1-.02-.09-.05-.18-.07-.28t-.01-.06c-.04-.16-.08-.31-.13-.47-.07-.26-.14-.52-.2-.79-.06-.23-.12-.46-.18-.69,0-.02-.01-.05-.02-.07q-.03-.1-.06-.2t.03-.17c.06-.05.11-.04.18-.04Z"/><path class="cls-66" d="M43.6,4.25h.04c.52,0,1.03.09,1.53.25.03.01.07.02.1.03.06.02.11.04.17.06.01,0,.03.01.05.02t.05.02s.03.01.04.02q.95.43,1.17.74c0,.06,0,.1-.02.15-.01.01-.02.02-.03.03-.01.01-.02.03-.04.04-.01.01-.03.03-.04.04-.03.03-.06.06-.09.09-.01.02-.03.03-.04.05-.07.08-.14.16-.21.24-.01.01-.02.02-.03.04t-.03.03s-.06.04-.12.05c-.07,0-.09-.02-.15-.06-.12-.09-.24-.17-.37-.25-.01,0-.03-.02-.04-.03-.81-.49-1.81-.63-2.73-.41-.55.13-1.02.36-1.47.7-.05.03-.07.05-.13.06-.1-.02-.15-.09-.22-.16-.01-.01-.02-.02-.03-.04-.02-.02-.04-.05-.06-.07-.06-.06-.11-.13-.17-.19q-.15-.16-.16-.24c.01-.1.07-.14.14-.21.02-.02.04-.03.07-.05.01,0,.02-.02.04-.03.6-.43,1.29-.75,2.02-.85.06,0,.12-.02.18-.03.19-.04.38-.04.58-.04Z"/><path class="cls-18" d="M25.87,6.83s.03.02.06.06c0,.06,0,.11,0,.16,0,.02,0,.03,0,.05,0,.05,0,.1,0,.15,0,.03,0,.07,0,.1,0,.08,0,.17,0,.25.01,0,.02,0,.03,0,.11,0,.22,0,.33,0,.04,0,.08,0,.12,0,.06,0,.12,0,.18,0,.02,0,.04,0,.06,0q.12,0,.19.04c.04.06.04.1.04.18,0,.01,0,.02,0,.04,0,.03,0,.05,0,.08,0,.04,0,.08,0,.12,0,.03,0,.05,0,.08,0,.02,0,.05,0,.07q0,.06-.03.09s-.07.03-.12.03c-.02,0-.03,0-.05,0-.02,0-.04,0-.06,0-.02,0-.04,0-.06,0-.06,0-.12,0-.18,0-.04,0-.08,0-.13,0-.1,0-.2,0-.31,0,0,.22,0,.45,0,.67,0,.1,0,.21,0,.31,0,.1,0,.2,0,.3,0,.04,0,.08,0,.11q-.01.31.09.59c.06.06.12.07.2.07.01,0,.03,0,.04,0,.01,0,.03,0,.04,0,.05,0,.09,0,.14,0,.05,0,.09,0,.14,0,.03,0,.06,0,.09,0,.07,0,.1,0,.15.04.06.09.05.2.05.31,0,.02,0,.05,0,.07,0,.02,0,.05,0,.07t0,.06-.03.1c-.08.05-.15.06-.24.08t-.06,0c-.14.02-.29.03-.43.03-.02,0-.04,0-.06,0-.25,0-.5-.06-.67-.25-.26-.31-.24-.76-.24-1.14,0-.04,0-.08,0-.13,0-.11,0-.22,0-.33,0-.11,0-.22,0-.34,0-.22,0-.44,0-.66-.01,0-.02,0-.03,0-.05,0-.1,0-.15,0-.02,0-.04,0-.05,0-.02,0-.03,0-.05,0-.02,0-.03,0-.05,0-.05,0-.07-.02-.1-.06q0-.06,0-.13s0-.03,0-.04c0-.03,0-.05,0-.08,0-.04,0-.08,0-.12,0-.03,0-.05,0-.08,0-.02,0-.05,0-.07q0-.06.04-.1s.08-.03.13-.03c.02,0,.03,0,.05,0t.05,0s.03,0,.05,0c.04,0,.08,0,.12,0,0-.02,0-.04,0-.05,0-.07,0-.13,0-.2,0-.03,0-.06,0-.09,0-.04,0-.08,0-.13v-.04c0-.05,0-.09.03-.13.05-.03.09-.04.14-.05t.06-.01s.04,0,.07-.01c.02,0,.04-.01.07-.02.12-.03.23-.05.36-.04Z"/><path class="cls-42" d="M47.12,5.77c.32.09.61.68.76.95.12.21.23.42.3.64,0,.02.02.05.03.07.11.3.19.61.24.93,0,.01,0,.02,0,.04.08.54.04,1.11-.06,1.65,0,.01,0,.03,0,.05-.01.05-.02.1-.05.15-.07.04-.15.03-.22.02-.04-.02-.08-.04-.11-.06-.03,0-.06-.01-.09-.02-.11-.02-.21-.05-.31-.08t-.05-.01c-.09-.03-.15-.05-.2-.14q0-.05,0-.11s0-.03,0-.06c0-.05.01-.09.02-.14.03-.19.03-.37.03-.56,0-.01,0-.03,0-.04,0-.37-.03-.71-.14-1.07,0-.01,0-.03-.01-.04-.15-.51-.45-1.01-.82-1.38q-.02-.13.02-.18s.02-.02.03-.03t.04-.04s.03-.03.04-.05c.02-.02.04-.04.05-.06.05-.05.1-.11.15-.16.02-.02.04-.04.06-.07.03-.03.06-.06.09-.1,0,0,.02-.02.03-.03.05-.05.08-.07.15-.06Z"/><path class="cls-42" d="M40.3,5.79c.05.03.09.08.14.12l.04.04s.05.05.08.08c.04.04.08.08.12.12.03.03.05.05.08.08.01.01.02.02.04.04.01.01.02.02.03.03,0,0,.02.02.03.03.05.07.05.14.04.22t-.08.09c-.3.31-.52.7-.68,1.1,0,.02-.01.03-.02.05-.05.14-.09.28-.12.42,0,.02,0,.04-.01.07-.04.18-.06.35-.06.54t0,.05s0,.07,0,.1c0,.05,0,.1,0,.16,0,.18,0,.36.04.54q.05.24,0,.35c-.06.05-.1.06-.17.08t-.04.01s-.08.02-.12.03c-.03,0-.05.01-.08.02-.07.02-.14.04-.21.06-.02,0-.05.01-.07.02-.05.01-.1.02-.15.02-.01,0-.03,0-.04,0t-.07-.04c-.17-.3-.15-.78-.15-1.11,0-.06,0-.12,0-.18,0-.28.02-.55.07-.82,0-.01,0-.03,0-.04.14-.62.37-1.2.74-1.72.01-.02.02-.03.04-.05.07-.1.15-.2.23-.3,0-.01.02-.02.03-.03q.18-.21.33-.19Z"/><path class="cls-209" d="M44.04,7.93s.04.01.06.02c.32.12.54.36.68.67.12.29.12.59,0,.88-.14.35-.39.57-.73.72-.28.11-.64.09-.91-.03-.29-.15-.55-.4-.65-.71-.1-.35-.08-.68.1-1.01.16-.27.38-.42.66-.54.02,0,.03-.01.05-.02.22-.08.51-.05.73.02Z"/><path class="cls-192" d="M34.6,13.24h.25c0,.42.01.84.02,1.27.04-.06.09-.11.13-.17.19-.16.37-.2.63-.19.21.03.39.12.52.29.15.23.21.48.21.75t0,.05c0,.35-.09.67-.35.92-.17.14-.38.17-.59.17-.16-.01-.31-.08-.43-.19-.04-.06-.08-.11-.11-.17l-.02.3h-.25v-3.03Z"/><path class="cls-192" d="M30.45,1.32h.25c0,.42.01.84.02,1.27.04-.06.09-.11.13-.17.19-.16.37-.2.63-.19.21.03.39.12.52.29.07.1.11.2.14.32t.02.05c.11.35.06.8-.11,1.13-.12.2-.27.32-.49.38-.02,0-.04.01-.06.02-.23.02-.44,0-.63-.16-.06-.06-.1-.13-.15-.2l-.02.3h-.25V1.32Z"/><path class="cls-18" d="M32.59,7.59h.05s.05,0,.08.03c.04.05.03.1.03.17,0,.01,0,.03,0,.04,0,.03,0,.05,0,.08,0,.04,0,.08,0,.12,0,.03,0,.05,0,.08,0,.02,0,.05,0,.07-.01.07-.03.09-.09.14q-.06.02-.14.03c-.27.04-.49.16-.72.31-.03.02-.07.04-.11.06,0,.01,0,.02,0,.04,0,.28,0,.57,0,.85,0,.14,0,.27,0,.41,0,.12,0,.24,0,.36,0,.06,0,.13,0,.19,0,.07,0,.14,0,.21t0,.06-.06.2c-.06.03-.11.03-.19.03-.01,0-.03,0-.04,0-.03,0-.05,0-.08,0-.04,0-.08,0-.12,0-.03,0-.05,0-.08,0t-.07,0c-.08-.01-.1-.03-.16-.09q-.01-.06-.01-.13s0-.03,0-.04c0-.05,0-.09,0-.14,0-.03,0-.06,0-.1,0-.09,0-.18,0-.26,0-.09,0-.18,0-.28,0-.15,0-.31,0-.46,0-.18,0-.36,0-.54,0-.17,0-.34,0-.52,0-.07,0-.15,0-.22,0-.09,0-.17,0-.26,0-.03,0-.06,0-.09,0-.04,0-.09,0-.13,0-.02,0-.05,0-.07.01-.07.03-.09.09-.14.05,0,.09-.01.14-.01.01,0,.03,0,.04,0,.03,0,.06,0,.09,0,.04,0,.09,0,.13,0,.03,0,.06,0,.08,0,.01,0,.03,0,.04,0,.06,0,.1,0,.15.04.04.06.04.11.03.18,0,.02,0,.05,0,.07,0,.02,0,.04,0,.06.02-.01.03-.02.05-.03.2-.14.41-.25.65-.31t.04-.01s.09-.01.14-.01Z"/><path class="cls-14" d="M46.86,7.82c.07.07.09.13.11.22,0,.02.01.05.02.07,0,.01,0,.03,0,.04,0,.04.02.07.03.11.06.26.09.52.09.8t0,.04c0,.21-.02.41-.06.62,0,.02,0,.04-.01.06-.01.07-.03.13-.04.2t-.01.06q-.05.21-.12.28c-.08.02-.12,0-.2-.04-.02-.02-.05-.03-.07-.05-.03-.02-.05-.04-.08-.06-.01-.01-.03-.02-.04-.03-.08-.06-.16-.11-.24-.17-.04-.02-.07-.05-.11-.07-.1-.07-.19-.13-.29-.2-.04-.03-.08-.05-.12-.08-.1-.07-.2-.13-.3-.2t-.06-.04s-.07-.05-.11-.07c-.08-.05-.15-.1-.21-.19q-.01-.06,0-.11c.06-.08.13-.14.22-.2.03-.02.05-.03.08-.05.01,0,.03-.02.04-.03.09-.06.17-.11.25-.17.12-.08.23-.16.35-.23.13-.09.26-.18.39-.26.02-.01.04-.03.06-.04.02-.01.04-.03.06-.04.02-.01.04-.03.06-.04.04-.03.08-.06.13-.09.07-.05.11-.05.19-.04Z"/><path class="cls-14" d="M43.17,5.7c.05.08.04.14.03.23t0,.06c0,.07,0,.13-.01.2t0,.07c0,.11-.02.21-.03.32-.01.16-.03.32-.04.47,0,.09-.01.17-.02.26,0,.04,0,.09,0,.13,0,.06,0,.12-.01.18,0,.02,0,.04,0,.05,0,.09-.01.13-.07.2-.07.05-.1.05-.18.04-.06-.02-.12-.05-.17-.08t-.05-.03s-.09-.04-.13-.06c-.15-.07-.3-.15-.45-.22-.06-.03-.11-.06-.17-.08-.16-.08-.32-.15-.47-.23-.02-.01-.04-.02-.07-.03-.04-.02-.08-.04-.12-.05q-.17-.08-.21-.14c0-.09.02-.14.07-.2.02-.02.05-.04.07-.07.01-.01.02-.02.04-.04.1-.1.21-.19.32-.27.02-.02.04-.03.06-.05.38-.31.82-.51,1.29-.64.02,0,.03,0,.05-.01q.21-.06.29,0Z"/><path class="cls-42" d="M43,10.26s.05.02.08.08c.05.19.05.38.07.58,0,.04,0,.07,0,.11,0,.07,0,.15.01.22,0,.12.02.23.02.35,0,.06,0,.12.01.17,0,.04,0,.07,0,.11q.04.52-.02.6c-.18,0-.34-.03-.51-.09-.02,0-.04-.02-.07-.02-.31-.11-.6-.24-.86-.43t-.04-.02q-.65-.46-.7-.68c.02-.07.05-.09.11-.13.06-.03.12-.06.19-.09.04-.02.07-.03.11-.05.02,0,.04-.02.05-.03.07-.03.14-.07.21-.1.01,0,.02-.01.04-.02.04-.02.07-.04.11-.05.05-.02.09-.05.14-.07t.06-.03c.05-.03.11-.05.16-.08.08-.04.16-.08.24-.12.02-.01.05-.02.07-.04.03-.02.07-.04.1-.05.13-.07.24-.13.4-.11Z"/><path class="cls-42" d="M44.51,10.24c.06.02.12.05.18.08.04.02.08.04.12.06.02.01.04.02.07.03.13.06.26.13.39.19.05.02.1.05.14.07.15.07.3.14.45.22.03.01.05.02.08.04.05.02.09.04.14.07.11.05.2.1.28.18,0,.09-.05.14-.11.2t-.03.03c-.39.41-.91.75-1.45.92-.03,0-.06.02-.09.03-.03,0-.06.02-.08.03-.02,0-.04.01-.06.02-.12.04-.23.07-.36.06-.14-.21-.02-.67,0-.91,0-.08.01-.16.02-.24,0-.06.01-.13.02-.19.01-.13.02-.25.03-.38,0-.02,0-.05,0-.07,0-.05,0-.09,0-.14,0-.02,0-.04,0-.06,0-.02,0-.04,0-.05.01-.06.03-.1.07-.14.06-.03.12-.03.19-.02Z"/><path class="cls-42" d="M40.52,7.81c.06,0,.1.03.15.07.02.01.04.03.06.04.02.01.04.03.06.04.02.01.04.03.06.04.13.09.25.17.38.27.07.05.15.1.23.16.1.07.2.13.3.2.02.02.05.03.07.05q.43.29.46.35c0,.07.01.12-.03.18-.06.06-.12.11-.2.15-.03.02-.06.04-.09.06-.02.01-.03.02-.05.03-.08.05-.16.11-.25.17-.04.02-.07.05-.11.07-.02.01-.04.03-.06.04-.13.09-.26.18-.4.27-.02.02-.04.03-.07.05-.01,0-.02.01-.03.02-.07.05-.13.09-.2.14-.02.01-.03.02-.05.03-.03.02-.06.04-.08.06-.08.05-.12.07-.22.06-.09-.15-.12-.31-.15-.47,0-.02,0-.04-.01-.05,0-.04-.02-.09-.03-.14t0-.05c-.03-.18-.04-.35-.04-.53,0-.02,0-.03,0-.05,0-.26.02-.51.08-.77,0-.02,0-.03.01-.05.01-.05.02-.1.04-.15,0-.01,0-.03.01-.04q.05-.2.16-.21Z"/><path class="cls-42" d="M44.2,5.67c.11,0,.2.02.3.05.01,0,.03,0,.04.01.04.01.09.03.13.04.02,0,.04.01.07.02.1.03.2.07.3.12.04.02.08.04.12.06.31.15.59.34.84.57.01.01.02.02.03.03.03.03.07.06.1.09.01,0,.02.02.03.03q.15.14.17.23c-.01.08-.04.09-.11.13-.04.02-.08.04-.12.05-.1.04-.2.09-.3.14-.01,0-.03.01-.04.02-.1.05-.21.11-.31.17q-.05.02-.13.02v.04s-.02,0-.03.01c-.12.04-.23.1-.34.15-.02,0-.03.01-.05.02-.09.04-.17.09-.25.14-.1.06-.2.09-.32.08-.06-.04-.07-.07-.09-.13,0-.04,0-.09-.01-.13,0-.01,0-.03,0-.04,0-.05,0-.09-.01-.14,0-.03,0-.06,0-.1,0-.07-.01-.13-.02-.2,0-.08-.01-.17-.02-.25,0-.07-.01-.13-.02-.2,0-.03,0-.06,0-.09-.01-.16-.02-.33-.03-.49,0-.01,0-.03,0-.04q-.01-.27,0-.36s.04-.04.07-.04Z"/><path class="cls-102" d="M23.27,8.35c.18.13.25.34.28.55.05.41.08.95-.17,1.31-.12.13-.25.2-.44.21q-.44.01-.62-.14c-.1-.09-.15-.19-.19-.32,0-.02-.01-.04-.02-.07-.04-.18-.04-.36-.04-.54,0-.04,0-.09,0-.13,0-.31.02-.6.24-.83.23-.21.7-.2.95-.04Z"/><path class="cls-22" d="M3.32,2.37c.13.12.2.28.21.45,0,.11,0,.22,0,.33,0,.03,0,.07,0,.1,0,.09,0,.18,0,.27,0,.09,0,.19,0,.28,0,.18,0,.37,0,.55h-.25q0-.14-.02-.28s-.02.03-.04.07c-.11.15-.29.24-.47.27-.21.02-.39-.01-.58-.11-.14-.12-.21-.26-.23-.44,0-.2.03-.35.16-.5.2-.21.52-.27.81-.28.05,0,.11,0,.16,0t.06,0s.09,0,.13,0c0-.06,0-.11-.01-.17t0-.05c-.01-.13-.06-.23-.15-.33-.19-.1-.43-.08-.63-.02-.09.03-.18.07-.26.11v-.25c.33-.19.78-.24,1.1-.01Z"/><path class="cls-22" d="M12.32,2.37c.13.12.2.28.21.45,0,.11,0,.22,0,.33,0,.03,0,.07,0,.1,0,.09,0,.18,0,.27,0,.09,0,.19,0,.28,0,.18,0,.37,0,.55h-.25q0-.14-.02-.28s-.02.03-.04.07c-.11.15-.29.24-.47.27-.19.02-.39,0-.56-.11-.04-.03-.07-.07-.11-.1l-.04-.04c-.1-.16-.11-.36-.08-.54.06-.18.18-.32.34-.41.24-.11.5-.13.76-.13t.06,0s.09,0,.13,0c0-.06,0-.11-.01-.17t0-.05c-.01-.13-.06-.23-.15-.33-.19-.1-.43-.08-.63-.02-.09.03-.18.07-.26.11v-.25c.32-.18.78-.24,1.1-.01Z"/><path class="cls-22" d="M33.92,2.37c.14.13.2.3.21.49,0,.09,0,.19,0,.29,0,.03,0,.07,0,.1,0,.09,0,.18,0,.27,0,.09,0,.19,0,.28,0,.18,0,.37,0,.55h-.25q0-.14-.02-.28s-.02.03-.04.07c-.12.16-.29.24-.49.27-.19.02-.38,0-.54-.11-.04-.03-.07-.07-.11-.1l-.04-.04c-.1-.16-.11-.36-.08-.54.05-.17.17-.31.32-.4.25-.11.52-.14.79-.14t.06,0s.09,0,.13,0c0-.06,0-.11-.01-.17t0-.05c-.01-.12-.04-.2-.12-.29-.15-.11-.32-.1-.49-.09-.16.02-.29.08-.44.15v-.25c.32-.18.79-.24,1.1-.01Z"/><path class="cls-22" d="M24.69,2.37c.13.12.2.28.21.45,0,.11,0,.22,0,.33,0,.03,0,.07,0,.1,0,.09,0,.18,0,.27,0,.09,0,.19,0,.28,0,.18,0,.37,0,.55h-.25q0-.14-.02-.28s-.02.03-.04.07c-.11.15-.29.24-.47.27-.19.02-.39,0-.56-.11-.04-.03-.07-.07-.11-.1l-.04-.04c-.1-.16-.11-.36-.08-.54.05-.17.17-.31.32-.4.25-.11.52-.14.79-.14t.06,0s.09,0,.13,0c0-.06,0-.11-.01-.17t0-.05c-.01-.13-.06-.23-.15-.33-.19-.1-.43-.08-.63-.02-.09.03-.18.07-.26.11v-.25c.32-.18.78-.24,1.1-.01Z"/><path class="cls-148" d="M18.5,7.06h.05s.03,0,.06,0h.06s.08,0,.13,0c.06,0,.13,0,.19,0,.04,0,.08,0,.12,0h.06c.22,0,.41.06.58.21.15.16.2.34.19.55-.01.19-.1.35-.23.48-.19.15-.41.19-.64.19-.02,0-.04,0-.05,0-.04,0-.08,0-.11,0-.06,0-.11,0-.17,0-.04,0-.07,0-.11,0t-.05,0s-.02,0-.05,0c-.01,0-.03,0-.04,0-.07,0-.15-.01-.22-.02v-1.36q.17-.04.25-.04Z"/><path class="cls-102" d="M31.61,2.53l.04.02c.15.11.23.32.26.5.04.31.03.66-.15.92-.08.11-.18.18-.32.21-.19.02-.34,0-.49-.13-.18-.17-.25-.42-.26-.65,0-.29.03-.57.23-.79.19-.18.46-.21.68-.07Z"/><path class="cls-102" d="M35.76,14.45l.04.02c.15.11.23.32.26.5.04.31.03.66-.15.92-.1.12-.2.18-.35.21-.18.02-.31-.02-.45-.13-.17-.15-.24-.39-.25-.61-.01-.29.02-.58.21-.82.18-.19.48-.23.71-.09Z"/><path class="cls-14" d="M43.47,8.22h.38v.17s.05.01.07.02c.17.06.32.19.41.35.09.19.1.37.03.57-.1.23-.24.36-.46.46-.17.05-.36.05-.52-.03-.19-.11-.32-.25-.4-.45-.05-.17-.04-.37.04-.54.03-.06.07-.1.11-.15t.03-.04c.07-.08.15-.14.25-.17h.06v-.19Z"/><path class="cls-22" d="M19.54,2.45c.19.16.31.45.32.7,0,.2.01.4-.06.6,0,.02-.01.04-.02.06-.09.23-.24.42-.46.53-.25.1-.53.12-.79.02-.25-.11-.4-.28-.51-.53-.12-.35-.12-.73.03-1.07.12-.25.3-.41.57-.5.33-.08.65,0,.92.2ZM18.41,2.69c-.18.26-.2.57-.16.88.05.21.14.41.33.53.15.08.34.11.51.06.2-.08.32-.19.42-.38.11-.26.12-.6.03-.87-.08-.19-.19-.34-.37-.42-.28-.1-.56-.03-.75.2Z"/><path class="cls-30" d="M29.62,2.42c.2.15.31.42.35.66.03.37,0,.73-.24,1.03-.16.17-.39.29-.62.3-.29,0-.54-.05-.76-.25-.25-.26-.3-.62-.29-.96,0-.27.11-.53.29-.72.35-.32.88-.34,1.26-.06ZM28.52,2.69c-.18.26-.2.57-.16.88.05.21.14.41.33.53.16.09.35.1.53.06.17-.06.29-.18.38-.34.12-.28.14-.62.04-.91-.08-.19-.19-.34-.37-.42-.28-.1-.56-.03-.75.2Z"/><path class="cls-22" d="M1.47,1.57c-.01.08-.03.16-.04.25-.02,0-.04-.01-.06-.02-.28-.07-.58-.12-.85.02-.1.06-.17.15-.21.27-.02.12-.02.22.05.32.12.15.29.24.46.33q.63.33.76.65c.06.2.03.4-.05.59-.12.21-.32.33-.54.41-.3.07-.68.06-.96-.08,0-.03,0-.07,0-.1,0-.02,0-.04,0-.06,0-.05,0-.08.02-.13.09.03.18.06.27.1.19.06.46.07.66,0,.14-.07.23-.16.3-.3.03-.12.05-.25,0-.37-.12-.2-.33-.29-.53-.4Q.14,2.69.02,2.38c-.04-.17-.02-.35.06-.51.15-.21.34-.33.59-.39.26-.04.55-.01.79.09Z"/><path class="cls-22" d="M30.76,13.48v.27s-.04-.01-.06-.02c-.03,0-.05-.01-.08-.02-.01,0-.03,0-.04-.01-.35-.09-.73-.09-1.05.09-.25.16-.41.39-.49.67,0,.03-.01.07-.02.1,0,.01,0,.03-.01.04-.06.36,0,.73.2,1.04.1.14.21.23.36.3.01,0,.03.01.04.02.33.16.74.11,1.08.02.03,0,.05-.01.08-.02v.25c-.42.17-.89.16-1.3,0-.32-.15-.54-.4-.66-.73-.14-.44-.16-.92.05-1.35,0-.02.02-.04.03-.06.16-.3.44-.52.77-.63.36-.11.76-.08,1.12.04Z"/><path class="cls-58" d="M8.88,2.29h.25s0,.04,0,.05c0,.17,0,.33,0,.5,0,.09,0,.17,0,.26,0,.08,0,.17,0,.25,0,.03,0,.06,0,.09,0,.22,0,.46.16.63.12.09.24.11.39.1.16-.02.28-.1.39-.22.13-.21.14-.43.14-.68,0-.03,0-.06,0-.09,0-.07,0-.15,0-.22,0-.08,0-.15,0-.23,0-.15,0-.3,0-.45h.25c0,.68.01,1.36.02,2.06h-.25c0-.11-.01-.21-.02-.32t-.05.08c-.1.15-.21.24-.39.28-.01,0-.03,0-.04.01-.18.03-.38.03-.54-.07-.2-.15-.28-.31-.32-.55,0-.12,0-.23,0-.35,0-.03,0-.07,0-.1,0-.09,0-.17,0-.26,0-.09,0-.18,0-.27,0-.17,0-.35,0-.52Z"/><path class="cls-211" d="M32.37,14.2h.25s0,.04,0,.05c0,.17,0,.33,0,.5,0,.09,0,.17,0,.26,0,.08,0,.17,0,.25,0,.03,0,.06,0,.09,0,.22,0,.46.16.63.12.09.24.11.39.1.16-.02.28-.1.39-.22.14-.2.14-.45.14-.68,0-.03,0-.06,0-.09,0-.07,0-.15,0-.22,0-.08,0-.15,0-.23,0-.15,0-.3,0-.45h.25c0,.68.01,1.36.02,2.06h-.25c0-.11-.01-.21-.02-.32t-.05.08c-.1.15-.21.24-.39.28-.01,0-.03,0-.04.01-.21.04-.42.02-.59-.1-.16-.14-.24-.3-.27-.51,0-.11,0-.23,0-.34,0-.03,0-.07,0-.1,0-.09,0-.17,0-.26,0-.09,0-.18,0-.27,0-.17,0-.35,0-.52Z"/><path class="cls-144" d="M14.48,2.34c.17.13.24.31.27.51,0,.12,0,.23,0,.35,0,.03,0,.07,0,.1,0,.09,0,.17,0,.26,0,.09,0,.18,0,.27,0,.17,0,.35,0,.52h-.25v-.05c0-.17,0-.33,0-.5,0-.09,0-.17,0-.26,0-.08,0-.16,0-.25,0-.03,0-.06,0-.09,0-.23,0-.46-.16-.63-.14-.1-.29-.12-.45-.09-.16.04-.26.12-.35.25-.11.2-.11.41-.11.64,0,.03,0,.06,0,.09,0,.07,0,.15,0,.22,0,.08,0,.15,0,.23,0,.15,0,.3,0,.45h-.25q0-1.02-.02-2.06h.25c0,.11.01.21.02.32.02-.03.03-.05.05-.08.23-.34.69-.41,1.03-.19Z"/><path class="cls-211" d="M36.08,2.34c.17.13.24.31.27.51,0,.12,0,.23,0,.35,0,.03,0,.07,0,.1,0,.09,0,.17,0,.26,0,.09,0,.18,0,.27,0,.17,0,.35,0,.52h-.25v-.05c0-.17,0-.33,0-.5,0-.09,0-.17,0-.26,0-.08,0-.16,0-.25,0-.03,0-.06,0-.09,0-.23,0-.46-.16-.63-.14-.1-.29-.12-.45-.09-.14.04-.27.13-.35.25-.11.2-.11.41-.11.64,0,.03,0,.06,0,.09,0,.07,0,.15,0,.22,0,.08,0,.15,0,.23,0,.15,0,.3,0,.45h-.25q0-1.02-.02-2.06h.25c0,.11.01.21.02.32.02-.03.03-.05.05-.08.11-.16.21-.24.4-.29.22-.04.45-.02.63.1Z"/><path class="cls-58" d="M5.52,2.37c.16.15.22.34.23.56,0,.09,0,.18,0,.27,0,.03,0,.07,0,.1,0,.09,0,.17,0,.26,0,.09,0,.18,0,.27,0,.17,0,.35,0,.52h-.25v-.05c0-.17,0-.33,0-.5,0-.09,0-.17,0-.26,0-.08,0-.16,0-.25,0-.03,0-.06,0-.09,0-.23,0-.46-.16-.63-.14-.1-.29-.12-.45-.09-.16.04-.26.12-.35.25-.11.2-.11.41-.11.64,0,.03,0,.06,0,.09,0,.07,0,.15,0,.22,0,.08,0,.15,0,.23,0,.15,0,.3,0,.45h-.25q0-1.02-.02-2.06h.25c0,.11.01.21.02.32.01-.02.02-.04.04-.07.09-.14.2-.24.36-.29t.04,0s.04,0,.05-.01c.22-.02.44,0,.63.14Z"/><path class="cls-191" d="M21.19,1.53h1.95v.25h-.83v2.58h-.28V1.78h-.83v-.25Z"/><path class="cls-22" d="M26.4,2.22h.05c.16,0,.3.04.44.08,0,.08-.01.16-.02.25-.03,0-.05-.01-.08-.02-.02,0-.03,0-.05-.01-.04,0-.08-.02-.12-.03-.21-.05-.43-.02-.62.09-.18.13-.29.32-.33.54-.03.3,0,.58.2.83.16.16.32.22.54.22.16,0,.3-.04.45-.08.02.06.02.1.02.16,0,.02,0,.03,0,.05,0,.01,0,.03,0,.04-.02,0-.05.02-.07.03-.01,0-.03.01-.04.02-.31.08-.65.06-.93-.09-.24-.16-.38-.39-.45-.67-.06-.37-.01-.71.2-1.03.2-.24.49-.36.8-.36Z"/><path class="cls-22" d="M17.67,2.31c0,.08-.01.16-.02.25-.03,0-.05-.01-.08-.02-.02,0-.03,0-.05-.01-.04,0-.08-.02-.12-.03-.21-.05-.43-.02-.62.09-.18.13-.29.32-.33.54,0,.06,0,.11,0,.17,0,.01,0,.03,0,.05,0,.24.07.47.24.65.18.16.38.2.62.19.12-.01.23-.05.34-.08.02.06.02.1.02.16v.05s0,.03,0,.04c-.02,0-.05.02-.07.03-.01,0-.03.01-.04.02-.31.08-.65.06-.93-.09-.25-.16-.37-.38-.44-.66-.07-.36-.02-.68.17-.99.13-.19.35-.32.56-.38.25-.04.52-.02.75.06Z"/><path class="cls-33" d="M29.28,9.52v.8q-.67.18-.99.13c-.11-.06-.19-.14-.23-.27,0-.06,0-.11,0-.17,0-.01,0-.03,0-.04,0-.11.02-.17.08-.26.15-.15.32-.16.52-.17.02,0,.04,0,.07,0,.19-.01.37-.01.55-.01Z"/><path class="cls-79" d="M48.82,13.5c.13.08.26.19.31.34,0,.02,0,.04,0,.06,0,.01,0,.03,0,.04,0,.16-.04.29-.14.42-.11.12-.25.18-.41.19-.15,0-.27-.06-.38-.16-.11-.11-.17-.25-.18-.4,0-.17.07-.29.19-.41.18-.16.39-.19.61-.09Z"/><path class="cls-144" d="M7.95,1.53h.28c0,.29,0,.57,0,.86,0,.13,0,.27,0,.4,0,.13,0,.26,0,.39,0,.05,0,.1,0,.15q0,.71-.2.92c-.16.14-.35.18-.55.18-.08,0-.15-.03-.23-.06v-.25s.03.01.05.02c.13.04.29.04.41,0,.11-.06.16-.17.19-.29.02-.09.01-.18.01-.26t0-.07c0-.07,0-.14,0-.22,0-.05,0-.1,0-.15,0-.12,0-.24,0-.36,0-.14,0-.27,0-.41,0-.28,0-.56,0-.83Z"/><path class="cls-90" d="M44.04,7.93s.04.01.06.02c.32.12.54.36.68.67.12.29.12.59,0,.88-.14.35-.39.57-.73.72-.28.11-.64.09-.91-.03-.29-.15-.55-.4-.65-.71-.1-.35-.08-.68.1-1.01.16-.27.38-.42.66-.54.02,0,.03-.01.05-.02.22-.08.51-.05.73.02ZM43.24,8.06s-.03.01-.04.02c-.26.12-.46.35-.57.61-.11.3-.07.61.06.89.14.27.36.46.66.55.28.08.58.04.84-.09.26-.15.45-.39.53-.68.07-.32.02-.63-.15-.91-.11-.16-.25-.26-.42-.36-.02-.01-.04-.03-.06-.04-.29-.09-.56-.11-.85,0Z"/><path class="cls-159" d="M31.48,13.24h.25v3.03h-.25v-3.03Z"/><path class="cls-39" d="M27.33,1.32h.25v3.03h-.25V1.32Z"/><path class="cls-196" d="M33.88,3.31c0,.24.02.5-.15.7-.13.13-.28.17-.46.18-.12,0-.22-.03-.32-.11-.09-.1-.1-.21-.1-.34.01-.12.06-.19.14-.27.25-.19.59-.17.88-.16Z"/><path class="cls-196" d="M24.66,3.31c0,.24.02.5-.15.7-.15.15-.32.18-.52.18-.11-.01-.21-.05-.28-.13-.08-.11-.08-.23-.07-.37.03-.12.11-.2.21-.27.25-.14.54-.12.81-.11Z"/><path class="cls-196" d="M12.29,3.31c0,.24.02.5-.15.7-.13.13-.28.17-.46.18-.12,0-.22-.03-.32-.11-.09-.1-.1-.21-.1-.34.01-.12.06-.19.14-.27.25-.19.59-.17.88-.16Z"/><path class="cls-196" d="M3.29,3.31c0,.24.02.5-.15.7-.15.15-.32.18-.52.18-.11-.01-.21-.05-.28-.13-.08-.11-.08-.23-.07-.37.03-.12.11-.2.21-.27.25-.14.54-.12.81-.11Z"/><path class="cls-159" d="M15.41,2.29h.25v2.06h-.25v-2.06Z"/><path class="cls-71" d="M45.97,12.55c.08.07.12.15.14.25,0,.12-.02.2-.1.3-.08.08-.16.14-.28.14-.11,0-.2-.03-.28-.11-.09-.1-.11-.2-.11-.34.01-.1.04-.17.11-.23.16-.12.35-.11.52,0Z"/><path class="cls-76" d="M42.6,4.58c.1.05.18.12.23.23.02.12.02.26-.06.36-.1.1-.17.15-.31.16-.13,0-.21-.03-.3-.12-.09-.11-.09-.21-.09-.34.02-.13.1-.19.2-.27.09-.05.22-.03.32-.02Z"/><path class="cls-3" d="M41.67,4.9c.07.04.13.08.17.15q0,.05,0,.11c0,.08.01.11.07.17.06.04.11.08.18.12-.02.05-.04.06-.09.08-.08,0-.12-.03-.18-.08q-.07-.05-.15-.05s-.03.01-.05.02c0,.09.03.12.08.19,0,.01.01.02.02.04-.02.07-.05.08-.11.11h-.06s-.02-.04-.03-.06c-.08-.16-.16-.31-.26-.46q-.05-.08-.05-.15s.1-.06.15-.08c.01,0,.03-.02.04-.02t.04-.02s.03-.01.04-.02c.07-.04.12-.04.2-.04Z"/><path class="cls-86" d="M44.74,4.54c.1.01.2.03.3.06.01,0,.02,0,.04.01.08.03.13.06.18.14.02.09,0,.17-.03.26t-.12.09q0,.16.02.32-.11-.02-.15-.04c0-.05,0-.1-.01-.15,0-.01,0-.03,0-.04,0-.04,0-.07,0-.11-.06-.01-.11-.03-.17-.04,0,.02,0,.03,0,.05,0,.02,0,.04-.01.06,0,.02,0,.04,0,.06q-.01.05-.03.07c-.06,0-.11-.01-.17-.02.03-.16.07-.31.12-.47,0-.02.01-.05.02-.07.02-.06.03-.12.05-.18Z"/><path class="cls-9" d="M42.07,12.69c.09.01.17.04.26.07.01,0,.02,0,.04.01.08.03.13.07.18.14.01.09.01.13-.03.22t-.1.09h-.06c0,.12.01.24.02.36q-.11-.02-.17-.04c0-.11-.01-.23-.02-.34q-.07-.04-.12-.04c-.06.03-.07.07-.09.13,0,.02-.02.04-.02.06,0,.02-.01.03-.02.05q-.08,0-.15-.02c.01-.06.03-.12.05-.18,0-.02.01-.03.02-.05t.02-.05s.01-.03.02-.05c.03-.08.07-.16.11-.23.01-.02.02-.05.03-.07,0-.02.02-.04.02-.06Z"/><path class="cls-168" d="M48.82,13.5c.13.08.26.19.31.34,0,.02,0,.04,0,.06,0,.01,0,.03,0,.04,0,.16-.04.29-.14.42-.11.12-.25.18-.41.19-.15,0-.27-.06-.38-.16-.11-.11-.17-.25-.18-.4,0-.17.07-.29.19-.41.18-.16.39-.19.61-.09ZM48.23,13.71c-.08.1-.1.2-.09.32.02.14.09.25.2.34.11.07.23.07.36.06.13-.03.21-.12.28-.23.06-.12.06-.27.02-.39-.07-.13-.17-.21-.31-.25-.19-.02-.33.01-.46.15Z"/><path class="cls-101" d="M42.77,12.9q.13.01.16.06s.01.03.03.06t.02.04s.04.09.06.13c0,.02.01.03.02.05,0,.01.01.03.02.04t.02.04s.01.03.01.07h.04s0-.04,0-.06c0-.03,0-.05,0-.08,0-.01,0-.03,0-.04,0-.08.01-.15.03-.23h.15c-.01.17-.03.34-.05.51,0,.03,0,.05,0,.08,0,.06-.01.13-.02.19-.06,0-.11,0-.17-.02q-.04-.05-.07-.12s0-.02-.02-.04c-.02-.04-.03-.07-.04-.11,0-.02-.02-.04-.03-.06q-.05-.12-.05-.17h-.04s0,.02,0,.03c-.01.14-.04.27-.07.4q-.11,0-.15-.02c0-.17.04-.33.09-.5,0-.03.01-.05.02-.08.02-.06.03-.12.05-.19Z"/><path class="cls-80" d="M40.4,11.27s.03.02.07.07c0,.1-.04.19-.08.29-.01.03-.02.06-.03.09,0,.01,0,.03-.01.04t-.01.09s.03-.03.04-.04c.02-.02.04-.03.06-.05,0,0,.02-.02.03-.03q.11-.1.16-.13t.09.04s.01.04.02.08c-.02.01-.03.03-.05.04-.01,0-.02.02-.03.03-.02.02-.05.04-.07.06-.06.05-.13.11-.19.16-.01.01-.02.02-.04.03-.02.02-.05.04-.07.06-.06.05-.08.07-.16.07l-.04-.08h-.04c0-.09.04-.17.07-.25.04-.09.07-.19.1-.28-.12.07-.23.15-.34.23-.07-.03-.08-.05-.11-.11.11-.09.22-.17.34-.25.07-.05.14-.1.21-.15t.08-.02Z"/><path class="cls-114" d="M46.41,11.85q.06,0,.09.03s.02.02.03.04c.04.05.09.1.14.15.06.06.11.12.17.18.04.05.08.09.13.13-.03.06-.05.1-.11.13-.1,0-.2-.04-.3-.08-.02,0-.03-.01-.05-.02-.04-.01-.08-.03-.12-.04,0,0-.01.01-.02.02.08.1.15.2.23.3q-.04.08-.08.11h-.06s-.06-.07-.08-.11c-.02-.02-.03-.05-.05-.07,0-.01-.02-.03-.03-.04-.03-.04-.06-.08-.09-.12-.01-.01-.02-.03-.03-.04-.02-.03-.04-.05-.06-.08,0-.01-.02-.02-.03-.04,0-.01-.02-.02-.03-.03t-.02-.11c.06-.04.08-.04.15-.03.08.02.17.04.25.07.02,0,.04.01.06.02.05.01.09.03.13.04q-.09-.1-.18-.2s-.02-.02-.03-.04c-.01-.01-.02-.02-.03-.04t-.02-.08s.02-.04.05-.07Z"/><path class="cls-81" d="M44.04,4.41h.13c.05.14.09.28.13.42.01.04.02.08.03.12,0,.02.01.05.02.07,0,.02.01.04.02.07q.01.06.01.11h-.15s-.01-.04-.02-.07t-.02-.07c-.07-.02-.13-.03-.2-.03-.01,0-.03,0-.04,0-.03,0-.07,0-.1,0l-.04.11h-.15c0-.07.03-.13.07-.19.02-.04.04-.09.06-.13.03-.08.07-.15.1-.23t.02-.05s.01-.03.02-.05c0-.01.01-.03.02-.04q.03-.05.07-.05Z"/><path class="cls-218" d="M46.75,11.48c.08.01.16.03.24.06.01,0,.02,0,.04.01.04.01.07.03.11.04.02,0,.05.02.07.03.05.02.09.03.14.05.06.02.12.04.18.06t-.04.09c-.06.02-.1.02-.16.01q-.05,0-.09.04s-.03.03-.04.05l-.04.05s-.03.05-.02.1c0,.03.02.06.03.08,0,.01,0,.02,0,.04t-.08.08c-.08-.03-.09-.06-.13-.13,0-.01-.01-.02-.02-.03-.02-.04-.04-.07-.06-.11-.01-.02-.03-.05-.04-.07-.03-.04-.05-.09-.08-.13-.02-.04-.04-.07-.07-.11t-.02-.09s.04-.08.07-.12Z"/><path class="cls-138" d="M43.68,12.99h.17c.07.14.13.28.19.42t.03.06s.01.03.02.06c0,.02.01.03.02.05.02.05.03.09.04.14h-.15l-.04-.11h-.34s-.01.08-.02.11t-.09.02s-.04,0-.07,0c.01-.13.05-.24.09-.37.01-.04.03-.07.04-.11,0-.02.01-.04.02-.05.03-.07.05-.15.08-.22Z"/><path class="cls-76" d="M41.46,12.33c.05.03.1.05.15.08t.04.03s.03.02.04.03c.03.02.06.03.09.05.01,0,.03.02.04.02.02.01.05.03.07.04,0,.04-.02.08-.04.11-.11,0-.17-.05-.26-.11t-.09,0s-.05.07-.07.12c.01,0,.03,0,.04.01.06.03.11.06.17.1t-.04.09c-.07,0-.1-.02-.15-.06q-.05-.04-.1-.04s-.07.05-.09.09v.06c.1.06.2.11.3.17,0,.03-.01.06-.02.09t-.08.02s-.08-.04-.13-.07c-.01,0-.02-.01-.04-.02-.09-.06-.18-.11-.27-.18.03-.08.07-.15.12-.22,0-.01.02-.02.02-.04.03-.04.05-.07.08-.11.02-.02.03-.05.05-.07.02-.02.03-.05.05-.07,0-.01.02-.02.02-.03q.05-.08.07-.1Z"/><path class="cls-72" d="M48.34,13.71h.16s.03,0,.05,0c.08,0,.15,0,.22.04.04.07.05.09.04.17-.03.05-.07.09-.11.13t.03.04s.02.03.04.05c.01.02.02.03.04.05t.03.08-.13,0c-.05-.05-.09-.12-.09-.19-.05-.01-.1-.03-.15-.04v.23h-.11v-.57Z"/><path class="cls-4" d="M43.58,4.39v.15h-.25s0,.06.01.1c0,.04.01.09.02.13,0,.02,0,.04,0,.06.01.11.02.22.02.33h-.17c0-.07-.02-.15-.03-.22,0-.02,0-.04,0-.06-.01-.11-.02-.22-.02-.33q-.12,0-.25.02v-.13c.22-.04.44-.06.66-.06Z"/><path class="cls-76" d="M45.5,4.79q.12.02.17.06c.01.05.02.1.02.15,0,.01,0,.03,0,.04,0,.04,0,.07,0,.11.02,0,.03-.01.05-.02.02,0,.04-.02.07-.03.02,0,.04-.02.07-.03q.1-.04.16-.04t.09.09c-.08.05-.15.08-.24.11-.14.05-.21.12-.27.25-.02.05-.04.09-.06.14-.06-.01-.1-.03-.15-.06.01-.08.04-.13.08-.19.07-.12.06-.21.04-.34,0-.02,0-.04-.01-.05,0-.03-.01-.06-.02-.09t0-.12Z"/><path class="cls-139" d="M45.8,12.61c.09.03.13.09.17.17.01.08,0,.12-.03.19-.06.07-.09.1-.18.12-.07,0-.12,0-.18-.04-.07-.09-.11-.15-.11-.27.02-.07.06-.11.12-.15.07-.04.14-.04.22-.02Z"/><path class="cls-66" d="M42.54,4.71c.06.02.09.05.13.1.03.08.04.14.02.22-.04.07-.09.12-.17.15q-.13.01-.19-.02c-.06-.05-.09-.08-.11-.15,0-.1,0-.16.06-.25.08-.07.16-.07.27-.06Z"/><path class="cls-81" d="M44.66,12.88h.05s.02,0,.04,0q0,.06.02.11c-.08.02-.15.04-.23.06.03.15.06.3.09.45,0,.02,0,.03,0,.05,0,.01,0,.03,0,.04t0,.09-.17.02c-.05-.2-.07-.4-.09-.61-.09,0-.18.01-.27.02v-.13s.02,0,.04,0c.05,0,.11-.02.16-.03.02,0,.04,0,.06-.01.02,0,.04,0,.05-.01.02,0,.03,0,.05,0q.14-.03.19-.03Z"/><path class="cls-9" d="M40.84,11.82c.1.07.2.16.3.24.06.05.12.1.18.16l-.04.08q-.08,0-.13-.04t-.09-.03c-.05.02-.08.06-.12.1-.01.02-.03.03-.04.05-.06.07-.12.15-.18.22-.01.01-.02.03-.04.04q-.06,0-.1-.04s-.02-.03-.03-.04c.02-.07.05-.12.11-.17.07-.06.13-.13.19-.2.03-.03.06-.06.09-.09-.03-.06-.06-.1-.1-.15-.01-.01-.02-.02-.03-.04,0,0-.02-.02-.02-.03l.08-.08Z"/><path class="cls-34" d="M47.77,11.04s.08.02.11.04c-.01.07-.03.13-.07.19-.01.02-.02.04-.03.05-.01.02-.02.04-.03.05-.02.03-.04.07-.05.1-.01.02-.03.05-.04.07-.06-.01-.11-.04-.17-.07-.02,0-.04-.02-.05-.03-.02-.01-.04-.02-.06-.03-.02,0-.04-.02-.05-.03-.05-.03-.11-.06-.16-.09t-.05-.03s-.08-.04-.12-.07q.02-.11.04-.15c.07.03.13.06.19.09t.06.03s.08.04.11.06c.02.01.04.02.05.03.02,0,.03.02.05.03t.12.02s.04-.07.05-.1c.01-.02.02-.04.03-.06.02-.04.05-.09.07-.13Z"/><path class="cls-31" d="M43.89,4.69h.04c.02.08.02.15.02.23.08,0,.15.01.23.02,0-.04.01-.09.02-.13l.06-.02c.01.05.03.1.04.15h.04s.02.07.03.1c0,.02.01.04.02.06q.01.05.01.11h-.15s-.01-.04-.02-.07c0-.02-.01-.04-.02-.07-.07-.02-.13-.03-.2-.03t-.04,0s-.07,0-.1,0c-.01.04-.03.08-.04.11h-.15c0-.07.04-.13.07-.19.02-.03.04-.07.05-.11q.03-.06.06-.12h.04v-.04Z"/><path class="cls-174" d="M47.26,11.66h.04s.03.01.05.02c.02,0,.03,0,.05,0,.04,0,.07.01.11.02t.02.06s-.03.04-.08.08t-.08,0c-.07,0-.08,0-.14.05-.04.05-.08.09-.11.15,0,.05.02.09.03.13,0,.01,0,.02,0,.04t-.08.08c-.07-.02-.08-.05-.12-.11,0-.02-.02-.03-.03-.05-.03-.07-.05-.12-.03-.19t.08-.05l.04.04s.03-.04.05-.05c0,0,.02-.02.03-.03t.04-.09h-.04s0-.04.02-.08c.06-.02.08-.02.13,0Z"/><path class="cls-138" d="M40.25,10.98c.04.06.06.08.06.15t-.04.02c-.05.03-.11.06-.16.09-.02.01-.05.03-.07.04-.03.02-.07.04-.1.06t-.06.03s-.08.05-.12.08q-.05.03-.11.03s-.03-.04-.06-.09c.02-.07.05-.09.11-.12.01,0,.03-.02.05-.03t.05-.03s.07-.04.1-.06t.05-.03c.08-.04.15-.09.23-.14t.08-.02Z"/><path class="cls-67" d="M45.08,12.76q.02.05.04.12s.02.05.02.08c0,.01,0,.03.01.04.01.05.03.09.05.13,0,.02.01.03.02.05.01.03.02.06.03.09.03.08.04.13.01.21q-.06,0-.11.02c-.05-.11-.09-.23-.13-.34-.02-.04-.03-.08-.05-.13,0-.02-.02-.05-.03-.07t-.02-.07-.02-.11.17-.02Z"/><path class="cls-217" d="M21.19,1.53h1.95v.23h-.74v-.02c.09,0,.19,0,.28,0,.03,0,.06,0,.1,0,.05,0,.09,0,.14,0,.01,0,.03,0,.04,0q.1,0,.14.02v-.17h-1.89v.19h-.02v-.23Z"/><path class="cls-23" d="M15.41,1.4h.25v.34h-.25v-.34Z"/><path class="cls-152" d="M48.28,13.73s.04.04.04.09t0,.07s0,.04,0,.07c0,.02,0,.05,0,.08,0,.03,0,.05,0,.08,0,.06,0,.12,0,.19q-.07-.01-.1-.05c-.07-.14-.1-.26-.05-.41.03-.06.06-.07.12-.1Z"/><path class="cls-163" d="M48.68,13.73s.05,0,.09.02c.04.07.05.09.04.17t-.06.06s0-.03,0-.04c0-.02,0-.03,0-.05,0-.02,0-.03,0-.05,0-.01,0-.03,0-.04-.01,0-.03-.01-.04-.02,0,.05.01.1.02.15-.09.07-.18.07-.28.06t-.02-.06s0-.03,0-.05c0-.02,0-.03,0-.05,0-.01,0-.02,0-.04.06-.03.13-.03.2-.03t.07-.02Z"/><path class="cls-24" d="M44.87,4.71s.04,0,.08.02t.05,0s.04.01.1.05c0,.07,0,.09-.04.15-.09,0-.15,0-.23-.04,0-.03,0-.06,0-.08,0-.02,0-.03,0-.05t.02-.06Z"/><path class="cls-176" d="M41.63,5.05s.06.07.06.13c0,.01,0,.03,0,.04q-.12.08-.21.08t-.08-.11c.04-.1.12-.15.23-.13Z"/><path class="cls-62" d="M42.14,12.86c.09.01.16.04.25.08,0,.05,0,.08-.02.13t-.08.02s-.03-.01-.05-.02c-.02,0-.05-.01-.07-.02-.02,0-.04-.01-.06-.02,0-.06.02-.11.04-.17Z"/><path class="cls-49" d="M47.39,8.37h.04c.04.2.04.4.04.61,0,.05,0,.1,0,.16,0,.03,0,.07,0,.1,0,.02,0,.03,0,.05,0,.1-.02.18-.04.28h-.02s0-.05,0-.07c0-.09,0-.17,0-.26,0-.04,0-.07,0-.11,0-.25,0-.5-.02-.76Z"/><path class="cls-140" d="M47.01,8.22c.06.09.08.16.09.27,0,.06,0,.11.03.17,0,.03,0,.06,0,.09,0,.02,0,.04,0,.05,0,.02,0,.04,0,.06,0,.02,0,.04,0,.06,0,.04,0,.08,0,.13,0,.06,0,.13,0,.19,0,.04,0,.08,0,.12,0,.02,0,.04,0,.06,0,.1,0,.17-.04.26,0,.04-.01.08-.02.11h-.04c0-.08.02-.15.03-.23.03-.17.04-.33.03-.49,0-.01,0-.03,0-.04,0-.2-.02-.4-.06-.6-.01-.07-.02-.14-.03-.21Z"/><path class="cls-205" d="M47.39,8.5h.02c.02.19.02.38.02.57,0,.01,0,.03,0,.04,0,.24-.02.48-.06.72h-.02s0-.09,0-.14c0-.01,0-.03,0-.04,0-.06,0-.11.02-.16,0-.03,0-.06,0-.1,0-.02,0-.04,0-.06v-.06s0-.04,0-.07c0-.07,0-.14,0-.21,0-.05,0-.09,0-.14,0-.12,0-.23,0-.35Z"/><path class="cls-1" d="M44.4,10.02l.04.02c-.09.13-.2.17-.34.22t-.05.03c-.12.02-.23.02-.35.02-.02,0-.04,0-.06,0q-.31,0-.43-.06s-.03-.01-.04-.02c-.01,0-.02-.01-.03-.02,0-.01.01-.03.02-.04.01,0,.03.01.04.02.02,0,.04.01.05.02.02,0,.04.01.05.02.33.1.66.04.96-.11.05-.03.1-.06.14-.09Z"/><path class="cls-175" d="M40.25,8.52c.02.06.01.1,0,.17,0,.07,0,.13,0,.2v.04s0,.06,0,.09c0,.05,0,.09,0,.14,0,.2.01.39.04.59-.05-.05-.05-.08-.06-.15q0-.08-.04-.15c0-.06,0-.11,0-.16,0-.02,0-.03,0-.05,0-.03,0-.07,0-.1,0-.05,0-.11,0-.16,0-.03,0-.07,0-.1,0-.02,0-.03,0-.05q0-.11.02-.13s.01-.06.02-.09v-.05s.02-.02.02-.04Z"/><path class="cls-126" d="M44.06,4.62s.04.02.05.06c0,.02,0,.03.01.05,0,.02,0,.03.01.05q.01.05.01.14c-.07,0-.14-.01-.21-.02,0-.11.06-.19.11-.28Z"/><path class="cls-187" d="M48.34,13.62l.04.02-.02.02c.1,0,.2.01.3.02v.04h-.32v.57h.11v.02h-.11s.03.05.04.08q-.07-.03-.09-.08h.04c0-.18-.01-.35-.02-.53t-.09.02c.03-.07.08-.12.13-.17Z"/><path class="cls-44" d="M38.36,7.25s.08,0,.12,0h.08s.03,0,.07,0q.06,0,.11.04s-.04,0-.06,0c-.08,0-.15,0-.23,0-.03,0-.07,0-.1,0-.05,0-.09,0-.14,0-.01,0-.03,0-.04,0q-.07,0-.13.02c-.05,0-.1,0-.15,0,0,.02,0,.04,0,.06,0,.08-.02.11-.08.17.01-.08.03-.16.06-.25h.09v-.04c.13-.02.27-.02.4-.02Z"/><path class="cls-121" d="M48.15,13.79h.04s0,.03,0,.04c-.02.14-.02.27.03.39h-.06s.01.08.02.11c-.11-.12-.14-.23-.14-.39t.04-.1c0,.08.01.16.02.25.02-.1.04-.2.06-.3Z"/><path class="cls-68" d="M43.75,13.18h.04s.03.08.05.12c0,.02.02.04.03.07q.02.06.02.12h-.21c.02-.1.04-.2.08-.3Z"/><path class="cls-210" d="M39.96,8.27h.02c0,.07,0,.15,0,.22t0,.06s0,.04,0,.06v.06s0,.05-.02.08c0,.06,0,.11,0,.17,0,.02,0,.03,0,.05,0,.05,0,.11,0,.16,0,.04,0,.07,0,.11,0,.09,0,.18,0,.27h-.02c-.02-.09-.02-.17-.02-.27,0-.02,0-.03,0-.05,0-.04,0-.07,0-.11,0-.05,0-.11,0-.16,0-.23.02-.45.06-.67Z"/><path class="cls-178" d="M46.86,11.66c.1.01.19.04.28.08-.02.08-.06.13-.11.19-.05-.05-.08-.1-.12-.16-.01-.02-.02-.04-.03-.06t-.02-.04Z"/><path class="cls-73" d="M48.45,13.81s.06,0,.09,0h.05s.05,0,.08.04q-.01.09-.04.11s-.06,0-.1,0c-.02,0-.03,0-.05,0-.01,0-.03,0-.04,0v-.15Z"/><path class="cls-147" d="M43.32,4.54h.02c0,.08.02.15.03.23,0,.02,0,.04,0,.06.01.11.02.22.02.33h-.17v-.17q.04.08.06.13s.03-.01.04-.02v-.57Z"/><path class="cls-134" d="M43.62,5.3s.08,0,.12,0c.15,0,.29,0,.43.04v.02c-.3,0-.6-.01-.91-.02v-.02c.12-.02.24-.02.36-.02Z"/><path class="cls-168" d="M48.15,14.22q.08,0,.11.03s.02.02.03.04c.04.05.08.09.13.13h-.08l.02.04.06.02v.04c-.1-.02-.18-.07-.25-.15q-.02-.07-.02-.13Z"/><path class="cls-38" d="M48.56,13.44c.1,0,.18.02.27.06-.06.02-.07.02-.13,0-.04,0-.08,0-.12,0-.02,0-.04,0-.06,0q-.05,0-.09.02.13,0,.27.02v.02s-.04,0-.06,0c-.03,0-.05,0-.08.01-.01,0-.03,0-.04,0-.06,0-.12.02-.18.03v-.04h.04v-.04s-.08.01-.11.02c.02-.05.04-.05.09-.07q.15-.05.2-.05Z"/><path class="cls-106" d="M19.96,10.98h.04c.07.02.14.02.22.02t.05,0s.1,0,.14,0c.03,0,.06,0,.1,0,.08,0,.16,0,.24,0,0,.01-.01.03-.02.04-.1,0-.2,0-.3,0-.03,0-.07,0-.1,0-.05,0-.1,0-.14,0h-.05s-.04,0-.11,0t-.06-.08Z"/><path class="cls-184" d="M48.45,8.44c.04.06.04.09.05.16q0,.07.03.14s0,.09,0,.14c0,.01,0,.03,0,.04,0,.03,0,.06,0,.09,0,.04,0,.09,0,.13,0,.03,0,.06,0,.09,0,.01,0,.03,0,.04,0,.09-.02.16-.04.24h-.02s0-.05,0-.07c0-.09,0-.17,0-.26,0-.04,0-.07,0-.11,0-.22,0-.43-.02-.65Z"/><path class="cls-135" d="M49.04,13.77c.05.1.08.17.08.28,0,.02,0,.04,0,.06t0,.04s-.04.01-.06.02v.06h-.06s0-.02,0-.03c0-.04.01-.08.01-.13,0-.02,0-.03,0-.05,0-.02,0-.03,0-.05,0-.03,0-.07,0-.1v-.04s0-.03.02-.05Z"/><path class="cls-123" d="M48.92,13.62c.09.02.12.06.17.14.06.1.04.23.04.34h-.02s0-.03,0-.04t0-.06s0-.03,0-.06c-.01-.05-.03-.1-.05-.15l-.04.08c-.04-.07-.06-.11-.06-.19h-.04s.01-.04.02-.06Z"/><path class="cls-130" d="M37.97,10.89h.74c-.13.09-.3.09-.45.08-.02,0-.04-.01-.06-.02-.04,0-.08,0-.12-.01t-.06,0s-.03,0-.05,0v-.04Z"/><path class="cls-63" d="M28.2,2.7c.02.07,0,.11-.02.18-.03.1-.06.19-.07.3,0,.02,0,.04,0,.06t0,.06s0,.04,0,.06c0,.05,0,.1,0,.14-.01,0-.03-.01-.04-.02-.01-.28,0-.52.13-.78Z"/><path class="cls-156" d="M42.46,8.84h.02c.01.07.02.13.02.19,0,.02,0,.04,0,.06,0,.04,0,.08,0,.12,0,.02,0,.04,0,.06,0,.02,0,.03,0,.05t.02.06s0,.09,0,.13c.01,0,.03.01.04.02h-.06c-.06-.23-.11-.45-.06-.68Z"/><path class="cls-69" d="M43.18,12.97h.15c-.02.2-.04.39-.06.59h-.02c0-.18.02-.37.04-.55h-.08s0,.03,0,.04c0,.02,0,.03,0,.05t0,.05s0,.05-.05.08c0-.09,0-.17.02-.27Z"/><path class="cls-56" d="M30.97,11h.7c-.07.07-.09.06-.19.06-.01,0-.03,0-.04,0-.03,0-.05,0-.08,0-.04,0-.08,0-.12,0-.03,0-.05,0-.08,0-.02,0-.05,0-.07,0q-.06,0-.12-.06Z"/><path class="cls-10" d="M42.37,4.6c.12,0,.2,0,.3.06,0,.02-.01.04-.02.06-.04,0-.08,0-.11,0l-.02-.02s-.06,0-.1-.01c-.02,0-.03,0-.05,0t-.04,0l.04-.08Z"/><path class="cls-189" d="M44.81,8.69c.08.08.08.16.08.27,0,.02,0,.03,0,.05v.05q0,.39-.1.52h-.04s0-.02.01-.03c.09-.29.12-.56.05-.86Z"/><path class="cls-173" d="M37.71,8.78l.04.02s-.02.02-.04.03c-.07.08-.06.19-.06.29,0,.01,0,.03,0,.04q0,.07.02.14s-.05-.03-.08-.04c0-.07,0-.14,0-.2,0-.02,0-.04,0-.06q0-.14.04-.19s.03-.02.09-.05Z"/><path class="cls-143" d="M43.17,6.19h.02c0,.07,0,.15,0,.22,0,.02,0,.04,0,.06,0,.14-.01.26-.04.4h-.02c0-.23.01-.45.04-.68Z"/><path class="cls-120" d="M42.67,4.65c.06.03.09.06.13.11,0,.01-.01.03-.02.04-.03,0-.06-.01-.09-.02,0,.02.01.04.02.06,0,.03,0,.06,0,.09,0,.02,0,.03,0,.05,0,.01,0,.02,0,.04h-.02s0-.03,0-.04v-.06s-.01-.03-.02-.06c-.02-.08-.06-.1-.13-.15t.06,0s.03,0,.06-.01l.02-.04Z"/><path class="cls-170" d="M22.44,11.08q.31,0,.63.02s-.06.04-.13.04t-.05,0s-.04,0-.06,0c-.02,0-.04,0-.06,0-.12,0-.22-.01-.33-.04v-.02Z"/><path class="cls-190" d="M48.09,12.14c.08,0,.16.01.23.04.08.02.16.03.25.03t.07.02s.05,0,.08.01c.02,0,.05,0,.07,0v.02c-.25,0-.46-.04-.7-.11v-.02Z"/><path class="cls-204" d="M38.6,9.98c-.07.04-.14.08-.22.1-.08.02-.14.06-.2.11t-.08.01s-.02,0-.03-.01q.4-.27.53-.21Z"/><path class="cls-122" d="M43.07,7.36h.02q0,.48-.04.54c-.05.03-.09.03-.15.03-.02,0-.04,0-.06,0t-.05,0v-.04s.02,0,.03,0c.02,0,.03,0,.05,0,.01,0,.03,0,.05,0,.06-.01.08-.03.12-.08q.01-.05.02-.11s0-.04,0-.06t0-.06s0-.04,0-.06c0-.05,0-.11,0-.16Z"/><path class="cls-26" d="M48.58,13.48h.06c.06,0,.1.02.15.04,0,.02-.01.04-.02.06,0,0-.02,0-.03,0-.06-.01-.13-.02-.19-.02-.01,0-.03,0-.04,0-.03,0-.06,0-.1,0,.05-.06.09-.06.17-.06Z"/><path class="cls-107" d="M42.05,12.71c.02.06.02.09,0,.15h-.04s0,.03,0,.04c-.02.09-.03.17-.09.25,0,.02-.01.04-.02.06q-.02.05-.08.09c.06-.2.14-.39.23-.59Z"/><path class="cls-83" d="M49.46,7.31h.04q.13.35.09.45s-.08.08-.13.11c-.01,0-.03-.01-.04-.02.02-.02.04-.03.06-.05.05-.05.06-.06.07-.13,0-.1-.04-.19-.07-.28q-.02-.05-.02-.09Z"/><path class="cls-216" d="M13.14,2.29h.25c0,.13.01.25.02.38h-.04c0-.11-.01-.23-.02-.34h-.17v.09q-.04-.06-.04-.13Z"/><path class="cls-48" d="M48.81,14.35l.04.02s-.02.03-.06.06q-.05,0-.09,0s.07-.06.11-.08ZM48.77,14.43s.05,0,.09.02c-.08.08-.19.1-.3.1q-.09,0-.13-.04.16,0,.32-.02s.01-.04.02-.06Z"/><path class="cls-7" d="M44.66,4.83c.04.12,0,.21-.06.32q-.01.05-.02.09s.08.01.11.02c0-.02,0-.03,0-.05,0-.02,0-.03.01-.05.01,0,.03-.01.04-.02-.01.04-.03.09-.04.13-.06,0-.11-.01-.17-.02.03-.15.07-.29.11-.44Z"/><path class="cls-149" d="M49.02,13.9h.02s0,.08,0,.12c0,.02,0,.04,0,.07,0,.06-.01.09-.04.14h.06v-.06h.04s-.02.08-.04.11c-.01,0-.03.01-.04.02,0-.01-.01-.03-.02-.04-.04.03-.08.06-.11.09l-.04-.02s.02-.02.02-.03c.01-.01.02-.02.03-.03.01-.01.02-.02.03-.03.06-.08.07-.15.08-.24,0-.02,0-.04,0-.06v-.04Z"/><path class="cls-131" d="M48.17,13.71l.02.08h-.04c-.01.11-.03.21-.04.32-.01,0-.03-.01-.04-.02q-.01-.27.06-.36l.04-.02Z"/><path class="cls-181" d="M40.13,7.69h.02c0,.11,0,.15-.06.24-.04.09-.05.2-.06.31-.02,0-.04.01-.06.02.02-.18.07-.34.13-.51,0-.02.01-.04.02-.06Z"/><path class="cls-193" d="M44.13,4.28q.57.02.64.09s.01.02.02.03c-.22-.03-.44-.06-.66-.09v-.02Z"/><path class="cls-195" d="M48.96,8.63c.2.01.4.07.59.15t-.08.02s-.07-.03-.1-.04c-.1-.05-.2-.06-.31-.06-.05,0-.07-.03-.1-.07Z"/><path class="cls-220" d="M43.3,3.35c.02.08.01.14,0,.23,0,0-.01.01-.02.02-.01.06-.02.11-.03.17-.01.05-.02.09-.05.13,0-.2.03-.36.09-.55Z"/><path class="cls-16" d="M40.72,3.78v.04s-.03.02-.06.03c-.04.02-.08.05-.13.07t-.08.02c0,.11.01.23.02.34-.06-.12-.07-.23-.04-.36.07-.07.18-.15.28-.15Z"/><path class="cls-20" d="M43.05,10.34c.04.06.04.07.05.14,0,.02,0,.03,0,.05,0,.02,0,.03,0,.05,0,.02,0,.03,0,.05,0,.1.01.19.01.29-.05-.08-.06-.13-.06-.22t0-.06s0-.04,0-.06c0-.02,0-.04,0-.06,0-.05,0-.11,0-.16Z"/><path class="cls-108" d="M44.19,4.5c.04.07.06.14.08.22,0,.01,0,.03.01.04.02.07.03.12,0,.18-.04-.06-.04-.08-.04-.15h-.04c-.02-.1-.02-.19-.02-.28Z"/><path class="cls-74" d="M46.22,12.16s.07,0,.11,0h.06s.09.02.13.03c0-.01.01-.03.02-.04.03.02.05.05.08.08v.04c-.09-.01-.18-.03-.26-.06-.01,0-.03,0-.04-.01-.03,0-.06-.02-.1-.03v-.02Z"/><path class="cls-6" d="M48.72,8.22h.02s.01.08.02.12c0,.02,0,.05.01.07,0,.07,0,.13,0,.2h.11v.02h-.13c-.04-.09-.04-.17-.04-.26v-.05s0-.07,0-.11Z"/><path class="cls-171" d="M38.45,5.98l.02.04s-.04.09-.06.13h-.04c0,.07.01.14.02.21,0-.01-.01-.03-.02-.04-.02,0-.04-.01-.06-.02,0-.1.01-.15.07-.22.01-.02.02-.04.04-.06,0-.01.02-.03.03-.04Z"/><path class="cls-40" d="M43.77,13.29s.06.07.06.13c0,.01,0,.03,0,.04h-.13c.01-.07.03-.11.08-.17Z"/><path class="cls-146" d="M42.71,12.73s.08,0,.12,0t.07,0,.1.02s.09,0,.13.01c.01,0,.02,0,.04,0,0,.01.01.03.02.04-.11,0-.21,0-.32-.04-.01,0-.03,0-.04-.01-.04,0-.07-.02-.11-.03v-.02Z"/><path class="cls-160" d="M44.32,5.01c.04.07.05.11.06.19h-.15c-.01-.05-.03-.1-.04-.15h.04s.01.08.02.11h.06l.02-.15Z"/><path class="cls-21" d="M40.55,13.65c.02.06.02.07,0,.13,0,.05-.01.1-.02.16,0,.01,0,.03,0,.04,0,.03,0,.07-.01.1h-.04c-.01-.15.03-.29.08-.44Z"/><path class="cls-164" d="M44.74,12.88s.01.08.02.11h-.04v-.09s-.03.01-.04.02c-.06.02-.12.03-.19.04l-.04.02s-.08-.01-.11-.02c.12-.08.26-.08.4-.08Z"/><path class="cls-45" d="M46.01,12.61c.06.06.09.11.1.2,0,.1,0,.17-.06.26,0-.02-.01-.04-.02-.06,0-.01.01-.03.02-.04,0-.13,0-.24-.04-.36Z"/><path class="cls-203" d="M47.77,11.57l.02.04c-.03.09-.07.16-.13.23h-.04l-.04.08c0-.06,0-.08.04-.12,0-.01.02-.03.03-.04,0-.01.02-.03.03-.04,0-.01.02-.03.03-.04.02-.03.04-.07.07-.1Z"/><path class="cls-149" d="M46.31,11.13s.04.01.06.02q.01.12-.04.18s-.03.02-.06.05c-.03.03-.05.05-.08.08-.02.02-.05.05-.07.07l-.04-.02s.02-.02.03-.03q.12-.11.21-.23t-.02-.11Z"/><path class="cls-104" d="M46.82,13.79c.05.1.06.17.06.29,0,.02,0,.05,0,.07,0,.02,0,.04,0,.06h-.04c0-.14-.01-.28-.02-.42Z"/><path class="cls-200" d="M48.62,13.44c.08,0,.14.03.21.06-.06.02-.07.02-.13,0-.05,0-.1,0-.16,0t-.04,0s-.07,0-.1,0c.06-.08.13-.06.23-.06Z"/><path class="cls-17" d="M44.3,12.97c-.05.02-.1.04-.15.06.03.03.08.03.12.03t.06,0s.02,0,.04,0v.02c-.09,0-.18.01-.27.02v-.13c.07-.02.11-.02.19,0Z"/><path class="cls-47" d="M43.17,4.56h.04c.02.05.02.09.02.15t0,.05s0,.04,0,.05c0,.02,0,.04,0,.05,0,.04,0,.09,0,.13h-.02q-.04-.3-.04-.44Z"/><path class="cls-154" d="M42.31,3.18s.03.04.04.06c-.01,0-.03,0-.04,0-.02,0-.03,0-.05,0-.02,0-.03,0-.05,0q-.05,0-.1.04t-.11.01s-.03,0-.06,0c-.01,0-.03,0-.04,0,.05-.05.1-.06.17-.08t.07-.02c.06-.01.12-.02.18-.02Z"/><path class="cls-219" d="M47.98,11.17h.02q0,.05,0,.11s-.04.04-.06.06c-.02.04-.04.09-.05.13-.03.05-.05.06-.1.08l.19-.38Z"/><path class="cls-8" d="M49.46,7.35c.07.07.09.19.1.29,0,.03,0,.07,0,.1-.01,0-.03.01-.04.02v-.21h-.04c0-.07-.01-.14-.02-.21Z"/><path class="cls-107" d="M42.46,4.57h.07c.07.01.1.03.14.09-.01,0-.03-.01-.04-.02-.09-.03-.18-.03-.28-.02-.03.02-.05.04-.08.06t-.08-.02c.09-.07.14-.09.26-.09Z"/><path class="cls-118" d="M11.41,3.18l.02.04s-.04.02-.07.03c-.08.04-.13.09-.19.15t-.07.03v.04l-.04-.02c.09-.11.17-.18.3-.25l.04-.02Z"/><path class="cls-15" d="M26.23,2.23c.06,0,.11,0,.17,0,.02,0,.03,0,.05,0,.1,0,.19.01.29.04v.02s-.07,0-.1,0c-.02,0-.04,0-.06,0t-.09-.02s-.09,0-.13-.01c-.02,0-.05,0-.07,0t-.06,0v-.02Z"/><path class="cls-201" d="M48.98,13.63c.1.1.15.17.15.31,0,.05,0,.09,0,.14h-.02s0-.02,0-.04c-.02-.11-.04-.21-.09-.32t-.02-.06l-.02-.04Z"/><path class="cls-59" d="M39.96,9.66h.04c0,.06,0,.12,0,.18,0,.02,0,.03,0,.05q0,.12-.04.17s-.07.02-.12,0c.02,0,.03-.02.05-.03q.05-.03.07-.07c0-.05,0-.1,0-.15v-.04s0-.07,0-.11Z"/><path class="cls-143" d="M39.56,4.64c.08.01.15.04.23.07-.06.02-.1.02-.16,0-.08-.01-.12,0-.18.05h-.06q.1-.11.17-.12Z"/><path class="cls-200" d="M43.68,12.99h.17s.03.06.04.09h-.04s-.01-.03-.02-.04h-.13c-.02.05-.04.1-.06.15t0-.08s.01-.03.02-.05c0-.02.01-.03.02-.05,0-.01,0-.02.01-.04Z"/><path class="cls-6" d="M40.25,10.98v.04s-.04.02-.06.03c-.04.02-.07.04-.11.07-.05.03-.09.04-.15.04.06-.06.11-.1.18-.14.02,0,.04-.02.06-.03t.08-.02Z"/><path class="cls-132" d="M44.79,8.69c.1.15.08.34.08.51h-.02s0-.02,0-.04c0-.12-.03-.23-.05-.35t0-.13Z"/><path class="cls-28" d="M39.36,12.86c.02.08.01.12-.02.19t-.02.04c-.02.06-.02.11-.02.17-.02-.01-.04-.03-.06-.04,0-.13.06-.24.11-.36Z"/><path class="cls-100" d="M2.23,3.27s.01.04.02.06t-.03.03s-.02.02-.04.04t-.04.04s-.06.08-.07.14h-.04c.02-.09.06-.15.13-.22t.05-.05s.02-.02.04-.04Z"/><path class="cls-36" d="M41.14,9.96v.06h-.08s0,.02-.01.04c-.03.05-.06.06-.12.08l-.02.04s-.05-.01-.08-.02c.04-.03.09-.06.13-.09.01,0,.02-.02.04-.03q.09-.07.14-.07Z"/><path class="cls-10" d="M44.66,12.9h.06v.08c-.06.01-.13.03-.19.04.01,0,.03-.01.04-.02v-.04s-.04-.01-.06-.02c.02,0,.04,0,.07,0q.06,0,.09-.03Z"/><path class="cls-12" d="M42.1,5.64v.06s-.06.02-.09.04c-.02,0-.03.01-.05.02-.05.02-.09.03-.15.04.05-.05.09-.08.15-.11t.05-.03s.04-.02.08-.02Z"/><path class="cls-51" d="M44.09,4.71c.06.06.05.13.06.21-.07,0-.14-.01-.21-.02l.02-.06v.04h.15s-.01-.03-.02-.04c0-.04,0-.09,0-.13Z"/><path class="cls-52" d="M30.7,4.03l.06.06v.04h-.04v.23h-.02v-.32ZM30.47,4.35h.23v.02h-.23v-.02Z"/><path class="cls-29" d="M34.3,11.48l.02.04c-.09.07-.18.06-.29.06-.02,0-.04,0-.05,0-.04,0-.09,0-.13,0v-.02s.03,0,.06,0c.14,0,.27-.02.4-.07Z"/><path class="cls-226" d="M40.65,13.22l.08.02c.01.11-.02.19-.08.28-.02.01-.04.03-.06.04.03-.1.07-.2.11-.3-.02,0-.04-.01-.06-.02v-.02Z"/><path class="cls-91" d="M46.25,13.14v.06c-.09.05-.19.08-.28.11.05-.05.09-.08.15-.12t.05-.03s.04-.02.08-.02Z"/><path class="cls-182" d="M47.38,11.81s.06,0,.09,0c0,.02-.01.04-.02.06t-.06,0-.11.03s-.01.02-.02.03l-.06-.02c.05-.09.08-.1.18-.1Z"/><path class="cls-165" d="M44.85,9.2h.02q0,.27-.08.38h-.04s0-.02.01-.03c.04-.11.06-.23.08-.34Z"/><path class="cls-82" d="M43.34,8.46v.04s-.03.01-.04.02c-.06.04-.1.08-.14.14t-.08.05c.03-.06.06-.11.11-.16t.04-.04s.06-.05.11-.05Z"/><path class="cls-2" d="M39.38,4.79s.01.04.02.06c-.02.03-.05.06-.07.08-.03.04-.04.08-.04.12q-.04-.06-.04-.1c.03-.07.07-.11.13-.16Z"/><path class="cls-43" d="M47.6,4.75c-.04.08-.17.1-.25.13-.03,0-.05.02-.08.02.06-.07.23-.2.32-.15Z"/><path class="cls-85" d="M16.43,2.51l.02.04s-.02.03-.04.07c0,.01-.02.03-.03.04-.03.04-.05.08-.08.11-.01.02-.03.05-.04.08l-.02-.06s.03-.05.06-.1c.01-.02.02-.04.04-.05.03-.04.06-.09.09-.13Z"/><path class="cls-145" d="M42.86,12.44l.3.04v.04c-.11,0-.2,0-.3-.04v-.04Z"/><path class="cls-153" d="M46.15,12.14q.07.01.12.05h-.17s-.01.06-.02.09c-.03-.02-.05-.04-.08-.06.03-.08.06-.1.14-.09Z"/><path class="cls-109" d="M40.23,11.57c-.01.07-.03.13-.05.2,0,.02-.01.03-.02.05,0,.01,0,.03-.01.04-.02-.05-.02-.08,0-.13,0-.02,0-.04,0-.05-.01-.01-.03-.03-.04-.04q.07-.06.11-.06Z"/><path class="cls-32" d="M39.93,11.17q-.02.06-.08.09h-.08v.04s-.08.01-.11.02c.04-.05.09-.08.14-.11.01,0,.03-.02.05-.03t.08-.02Z"/><path class="cls-32" d="M44.19,9.58c0,.07,0,.08-.06.13q-.11.06-.17.05s-.02,0-.03-.01c.01,0,.03-.02.04-.02.02-.01.04-.02.06-.03.02,0,.04-.02.06-.03.04-.03.07-.05.11-.09Z"/><path class="cls-147" d="M47.39,9.47h.02s0,.08,0,.12c0,.02,0,.04,0,.07,0,.06-.01.12-.02.18h-.02s0-.09,0-.14c0-.01,0-.03,0-.04,0-.07,0-.12.04-.18Z"/><path class="cls-185" d="M44.4,8.96l.04.02s0,.08,0,.12c0,.02,0,.04,0,.07v.06s-.04.03-.06.04l.02-.3Z"/><path class="cls-164" d="M43.83,4.75q.02.07,0,.11h-.04v.09h-.04s0,.03,0,.04t-.07.09c.03-.08.06-.16.1-.23.01-.02.02-.04.03-.06,0-.02.02-.03.02-.05Z"/><path class="cls-10" d="M48.7,14.43s.04,0,.08.02c-.03.04-.05.06-.1.06t-.05,0s-.03,0-.05,0c-.01,0-.03,0-.04,0v-.04s.08,0,.12-.01t.05-.02Z"/><path class="cls-84" d="M43.17,13.01c.02.08.01.15,0,.23,0,.01,0,.03,0,.04,0,.03,0,.07-.01.1h-.04s-.01-.05-.02-.08h.04s0-.04,0-.06c0-.03,0-.05,0-.08,0-.01,0-.03,0-.04q0-.1.03-.12Z"/><path class="cls-179" d="M40.27,9.62l.04.02s0,.07.01.11t.03.11c.02.06.02.11.02.18-.07-.13-.08-.27-.09-.42Z"/><path class="cls-99" d="M44.95,5.07h.02c.03.08.04.16.05.25t.02.07s-.05-.01-.08-.02l-.02-.3Z"/><path class="cls-124" d="M7.27,4.11s.04.01.06.02c0,.08-.01.15-.02.23.02,0,.04.01.06.02-.03,0-.06-.01-.09-.02v-.25Z"/><path class="cls-202" d="M40.38,11.63c.02.06.02.07,0,.13.03,0,.05.01.08.02-.04.03-.09.06-.13.09.01-.09.03-.16.06-.25Z"/><path class="cls-219" d="M43.98,4.43c.02.07.01.1-.02.17-.02.03-.04.06-.06.09l-.02.04h-.04c.03-.11.08-.2.13-.3Z"/><path class="cls-166" d="M44.72,3.58s.02.07,0,.12c0,.01-.01.03-.02.05,0,.02-.01.03-.02.05,0,.01-.01.02-.02.03h-.06c.03-.09.06-.17.11-.25Z"/><path class="cls-161" d="M33.07,3.42l.04.02s-.02.02-.04.04t-.05.05s-.03.03-.05.05t-.06.1h-.04c.03-.11.1-.18.19-.25Z"/><path class="cls-38" d="M48.3,14.34l.11.06s-.05.01-.08.02l.02.04s.04.01.06.02v.04c-.07-.02-.12-.04-.17-.09h.08l-.02-.08Z"/><path class="cls-60" d="M49.1,13.94h.02v.21s-.04.01-.06.02v.06h-.06c.02-.06.03-.09.08-.13t.01-.08v-.07Z"/><path class="cls-157" d="M42.22,13.67q.24.01.34.08c-.08.03-.14,0-.21-.02-.02,0-.05-.01-.07-.02-.02,0-.04-.01-.06-.02v-.02Z"/><path class="cls-105" d="M39.91,10.05c-.05.02-.11.03-.16.05-.02,0-.03,0-.05.01t-.04.01s-.03,0-.04.01t-.07-.01c.06-.04.1-.05.17-.07t.06-.02c.05,0,.08,0,.13,0Z"/><path class="cls-119" d="M41.54,5.94l.04.02s-.06.06-.09.09c0,.01-.02.02-.03.04t-.03.02s-.05-.01-.08-.02c.06-.05.13-.1.19-.15Z"/><path class="cls-222" d="M46.03,5.04s.06.04.09.07t-.04,0c-.09,0-.18,0-.27.02.06-.06.13-.1.21-.09Z"/><path class="cls-190" d="M45.08,12.76l-.02.04s-.05-.01-.08-.02c0,.05-.01.1-.02.15-.04-.06-.05-.09-.06-.15q.11-.04.17-.02Z"/><path class="cls-92" d="M38.98,7.93c.02.06.02.12.01.18,0,.02,0,.04,0,.05-.01.05-.03.07-.07.11.01-.12.03-.23.06-.34Z"/><path class="cls-208" d="M48.75,13.75q.06.06.06.11t-.06.11v-.23Z"/><path class="cls-27" d="M45.59,12.63l.04.02s-.06.08-.09.11h-.04v.15h-.02q-.02-.15.03-.21s.03-.03.09-.08Z"/><path class="cls-87" d="M40.13,5.81l.04.02s-.04.05-.06.08c-.01.01-.02.03-.04.04t-.03.03h-.04v.04l-.04-.02s.04-.05.06-.07c.01-.01.02-.03.04-.04.02-.03.05-.05.07-.07Z"/><path class="cls-55" d="M44.07,13.56c.05.06.07.1.08.17h-.15l.02-.04h.06v-.13Z"/><path class="cls-65" d="M45.97,13.31v.04c-.06.04-.08.04-.15.04v.04s-.08.01-.11.02c.07-.06.16-.13.27-.13Z"/><path class="cls-198" d="M40.7,12.33q0,.06-.04.09s-.03.03-.04.04l-.02.06s-.04.02-.08.04c.03-.1.1-.16.17-.23Z"/><path class="cls-180" d="M48.43,12.21s.06,0,.09,0h.05s.04,0,.06.02c.03,0,.05,0,.08.01.02,0,.05,0,.07,0v.02h-.23v-.04h-.13v-.02Z"/><path class="cls-98" d="M38.6,9.98c-.09.06-.16.09-.27.09.04-.07.06-.07.13-.09.02,0,.03,0,.05-.02t.08.01Z"/><path class="cls-142" d="M21.83,7.78q0,.06-.03.09s-.03.02-.04.04c-.01.01-.03.02-.04.04-.01,0-.02.02-.03.03l-.04-.02s.04-.04.06-.06c.01-.01.02-.02.04-.04t.09-.07Z"/><path class="cls-116" d="M25.17,6.99l.04.04c0,.05,0,.1,0,.15,0,.01,0,.03,0,.04,0,.04,0,.07,0,.11h-.02c0-.05,0-.11-.01-.16,0-.02,0-.03,0-.05,0-.04,0-.08,0-.12l.02-.02Z"/><path class="cls-154" d="M40.65,6.81l.02.04s-.02.04-.04.05q-.04.06-.06.12s-.05.03-.09.06c.03-.07.06-.13.11-.19t.04-.05s.02-.02.03-.03Z"/><path class="cls-109" d="M42.69,5.81c-.05.03-.09.05-.15.07-.02,0-.03.01-.05.02-.05,0-.08,0-.12,0,.04-.02.08-.03.12-.05.02,0,.04-.02.07-.03.06-.02.08-.02.14,0Z"/><path class="cls-150" d="M41.73,5.39s-.03.01-.04.02t-.04.1s0,.04,0,.05c-.03-.03-.05-.06-.08-.09.04-.08.06-.1.15-.08Z"/><path class="cls-111" d="M41.69,5.22s0,.04-.03.07c-.07.04-.12.04-.2.05,0-.03.01-.05.02-.08v.04q.18-.08.21-.08Z"/><path class="cls-215" d="M44.04,3.39c.04.05.05.08.06.14,0,.01,0,.03,0,.04t0,.12h-.04s-.01-.07-.02-.11c0-.02,0-.04-.01-.06q0-.06,0-.13Z"/><path class="cls-57" d="M23.84,3.42l.04.02c-.06.06-.13.13-.19.19,0-.08.04-.11.09-.17.02-.01.04-.03.06-.04Z"/><path class="cls-162" d="M11.47,3.42l.04.02c-.06.06-.13.13-.19.19,0-.08.04-.11.09-.17.02-.01.04-.03.06-.04Z"/><path class="cls-169" d="M2.47,3.42l.04.02c-.06.06-.13.13-.19.19,0-.08.04-.11.09-.17.02-.01.04-.03.06-.04Z"/><path class="cls-97" d="M18.56,2.55l.04.02c-.06.06-.13.13-.19.19,0-.08.04-.11.09-.17.02-.01.04-.03.06-.04Z"/><path class="cls-13" d="M28.5,2.36q0,.06-.03.09s-.02.02-.04.04c-.01.01-.02.02-.04.04,0,0-.02.02-.03.03l-.04-.04c.06-.05.11-.1.17-.15Z"/><path class="cls-95" d="M40.66,14.34h.08v.04h.17s-.04.04-.06.06c-.07,0-.13-.04-.19-.08v-.02Z"/><path class="cls-214" d="M45.57,13.82l.04.02s-.06.05-.09.07t-.07.08s-.01-.08-.02-.11c.04-.02.09-.04.13-.06Z"/><path class="cls-128" d="M43.6,13.22c.02.08,0,.13-.02.21t-.06.08c.01-.1.04-.19.08-.28Z"/><path class="cls-77" d="M43.32,8.08c-.08.05-.15.08-.25.09.07-.08.14-.13.25-.09Z"/><path class="cls-61" d="M41.46,4.96v.04q-.14.08-.23.09c.05-.06.14-.13.23-.13Z"/><path class="cls-199" d="M41.84,3.97l.02.04s.02.04.04.06c0,.04,0,.07,0,.11,0,.02,0,.04,0,.06,0,.01,0,.03,0,.04-.04-.06-.04-.12-.05-.19v-.06s0-.03,0-.05Z"/><path class="cls-162" d="M28.67,2.55l.04.02-.17.17-.04-.02s.04-.04.05-.06c0-.01.02-.02.03-.04t.09-.07Z"/><path class="cls-160" d="M45.46,13.84s.04.01.06.02c-.03,0-.05.01-.08.02,0,.02.01.03.02.05.02.06.02.08,0,.14t-.04-.08s0-.03,0-.05c0-.02,0-.03,0-.05,0-.01,0-.02,0-.04l.04-.02Z"/><path class="cls-113" d="M47.83,12.04l.08.02h-.04s0,.02-.01.03c-.03.05-.07.07-.12.1.03-.06.06-.1.09-.15Z"/><path class="cls-110" d="M46.1,7.1l.04.02c-.04.05-.09.08-.15.09t-.08-.02s.06-.03.09-.05c.02,0,.03-.02.05-.03l.05-.02Z"/><path class="cls-137" d="M34.98,2.31h.02v.23h.04s-.03.08-.04.11h-.02v-.34Z"/><path class="cls-158" d="M30.49,13.63s.08.01.11.02c-.07.04-.11.04-.18.02-.02,0-.04,0-.06-.01t-.04,0c.07-.04.1-.04.17-.02Z"/><path class="cls-41" d="M40.38,13.03q.08.04.09.08s-.03,0-.06,0q-.07,0-.11.03s-.01.02-.02.03c-.01,0-.03-.01-.04-.02.04-.04.09-.08.13-.11Z"/><path class="cls-112" d="M46.92,12.61c0,.07,0,.08-.06.13q-.06.02-.11.04c.05-.07.1-.12.17-.17Z"/><path class="cls-93" d="M41.88,9.43l.04.02c-.06.07-.1.11-.19.11.05-.05.1-.09.15-.13Z"/><path class="cls-164" d="M38.98,6.97c.03.06.02.08,0,.15q-.03.06-.07.08c0-.09.02-.15.08-.23Z"/><path class="cls-70" d="M48.98,6.3l.02.04s-.02.04-.04.08t-.03.04s-.02.02-.03.03h-.04v.04s-.03-.01-.04-.02c.05-.07.1-.14.15-.21Z"/><path class="cls-11" d="M34.85,15.95l.06.06v.04h-.04v.21h-.02v-.3Z"/><path class="cls-125" d="M45.59,12.51h.03s-.02.02-.04.03c-.02,0-.03.02-.05.03-.02,0-.03.02-.05.03t-.06.06l-.04-.02q.13-.14.19-.13Z"/><path class="cls-89" d="M45.29,12.1v.04c-.06.04-.08.04-.15.04v.04s-.05-.01-.08-.02c.03-.02.06-.03.09-.05.02,0,.03-.02.05-.03t.08-.02Z"/><path class="cls-181" d="M39.7,5.81c0,.06-.01.08-.05.14,0,.01-.02.03-.03.04,0,.01-.01.02-.02.03-.02,0-.04-.01-.06-.02.05-.06.1-.13.15-.19Z"/><path class="cls-194" d="M42.98,4.5h.04v.04h.15v.02q-.12,0-.25.02s.01-.04.02-.06v.04h.04v-.06Z"/><path class="cls-222" d="M46.22,3.94l.04.02s-.04.05-.06.07c-.01.01-.02.03-.03.04-.04.04-.06.05-.11.05.02-.02.04-.04.05-.06,0-.01.02-.02.03-.04.03-.03.06-.06.09-.09Z"/><path class="cls-35" d="M48.15,14.09s.05.08.06.13h-.06s.01.08.02.11c-.01-.01-.03-.03-.04-.04t0-.11s0-.04,0-.06v-.04Z"/><path class="cls-75" d="M44.47,13.6h.04v.06h.11s.01-.03.02-.04v.06q-.08,0-.17.02v-.09Z"/><path class="cls-177" d="M43.15,13.29h.02v.15s-.05-.01-.08-.02c0-.04-.01-.08-.02-.11.01.03.03.05.04.08h.04v-.09Z"/><path class="cls-226" d="M38.52,11.63l.02.04s-.03.04-.06.08h-.04s-.01.05-.02.08h-.04c.03-.08.07-.13.13-.19Z"/><path class="cls-154" d="M41.29,12.57l.02.04s-.02.04-.04.08c0,.01-.02.03-.03.04,0,.01-.02.02-.03.03h-.06q.07-.09.13-.19Z"/><path class="cls-117" d="M46.31,12.37q.09.02.19.04v.02h-.11s-.01.03-.02.04c-.02-.03-.04-.06-.06-.09Z"/><path class="cls-223" d="M45.46,12.01v.04s-.07.06-.13.06t-.04,0c.05-.05.1-.09.17-.09Z"/><path class="cls-154" d="M40.1,11.97h.02c0,.06.01.13.02.19-.01,0-.03-.01-.04-.02v-.04h-.04q.02-.11.04-.13Z"/><path class="cls-115" d="M44.36,9.28s.02.07,0,.11c-.01.03-.03.07-.05.1h-.04s.02-.06.03-.08c0-.02.01-.03.02-.05t.03-.08Z"/><path class="cls-103" d="M42.09,9.32s-.01.04-.04.08q-.07.02-.13.04.11-.11.17-.11Z"/><path class="cls-133" d="M48.51,9.26h.02c0,.1,0,.17-.04.27h-.02c0-.1,0-.17.04-.27Z"/><path class="cls-25" d="M40.02,8.08h.02v.15s-.04.01-.06.02q.02-.15.04-.17Z"/><path class="cls-155" d="M44,7.91q.14,0,.2.06s.02.02.03.04c-.03,0-.06-.02-.09-.03t-.05-.01s-.05-.02-.08-.05Z"/><path class="cls-206" d="M42.39,4.58q.19-.01.26.04s.02.03.02.04c-.02,0-.03-.01-.05-.02-.08-.02-.16-.03-.24-.04v-.02Z"/><path class="cls-121" d="M41.63,4.39s-.02.03-.06.06q-.06,0-.11,0s.01-.04.02-.06q.11-.02.15,0Z"/><path class="cls-37" d="M44.57,4.33s.05,0,.08,0t.05,0c.05,0,.07.02.1.06-.03,0-.05,0-.08,0-.02,0-.03,0-.05,0t-.1-.05Z"/><path class="cls-105" d="M48.77,13.96l.02.04s-.02.04-.04.08c0,.02-.01.04-.02.06-.02-.03-.04-.06-.06-.09.03-.03.06-.05.09-.08Z"/><path class="cls-54" d="M44.51,13.1c.04.08.05.14.06.23-.04-.03-.06-.05-.06-.1v-.05s0-.03,0-.05v-.04Z"/><path class="cls-151" d="M44.13,13.03l.04.02s.07,0,.11.01c.02,0,.04,0,.06,0,.01,0,.03,0,.04,0v.02q-.12,0-.25.02v-.08Z"/><path class="cls-5" d="M41.86,12.57h.04s-.02.08-.04.11q-.06,0-.11-.02t.11-.04v-.06Z"/><path class="cls-188" d="M45.59,11.89l.04.02s-.02.04-.06.08q-.06.01-.11.02s.08-.08.13-.11Z"/><path class="cls-105" d="M38.92,11.04s.06.07.08.13t-.02.08s-.04-.06-.05-.13c0-.02,0-.03,0-.05v-.04Z"/><path class="cls-96" d="M38.45,5.98l.02.04q-.02.07-.06.13s-.04.01-.06.02c.03-.07.06-.13.09-.19Z"/><path class="cls-78" d="M47.16,4.96h.04s-.01.04-.04.08q-.06.02-.11.04l.11-.11Z"/><path class="cls-221" d="M44,4.41h.17s.01.06.02.09l-.04-.02v-.04c-.05,0-.1-.01-.15-.02v-.02Z"/><path class="cls-207" d="M41.52,13.75s.04,0,.08.02c-.04.05-.07.07-.13.09q.04-.09.06-.11Z"/><path class="cls-94" d="M41.8,13.29s.01.04.02.06h.06v.04s.04.01.06.02c-.05,0-.1-.01-.15-.02,0-.03.01-.06.02-.09Z"/><path class="cls-197" d="M44.13,13.01c.08,0,.15.01.23.02v.02c-.06,0-.13.01-.19.02-.01-.02-.03-.04-.04-.06Z"/><path class="cls-183" d="M46.69,12.8l.04.02c-.04.07-.09.09-.17.11l.13-.13Z"/><path class="cls-53" d="M45.89,12.69q.08.08.08.16s0,.04,0,.06h-.02l-.06-.23Z"/><path class="cls-46" d="M46.99,12.16h.06v.06s.05.01.08.02t-.08.04l-.06-.11Z"/><path class="cls-88" d="M46.31,11.13s.04.01.06.02q0,.13-.04.19s-.03-.01-.04-.02c0-.01.01-.02.02-.03.02-.06.01-.1,0-.16Z"/><path class="cls-6" d="M44.76,10.36h.08v.04h.09s.01.04.02.06q-.14-.04-.19-.09Z"/><path class="cls-136" d="M47.92,10.19c.07.01.13.03.19.06-.07.03-.12,0-.19-.02v-.04Z"/><path class="cls-25" d="M44.4,10.02l.04.02s-.03.05-.08.09h-.06c.02-.06.04-.08.09-.11Z"/><path class="cls-127" d="M43.03,8.18l.04.02s-.05.06-.08.09c-.03,0-.05-.01-.08-.02.04-.03.08-.06.11-.09Z"/><path class="cls-167" d="M10.22,3.99h.02v.15q-.06,0-.09-.02s.05-.09.08-.13Z"/><path class="cls-224" d="M23.6,3.27c0,.07-.03.1-.08.15-.02,0-.04-.01-.06-.02l.13-.13Z"/><path class="cls-226" d="M43.43,3.04c.02.05.02.07,0,.13t-.08.06c.02-.07.03-.13.08-.19Z"/><path class="cls-85" d="M33.69,15.49h.02v.19s-.04.01-.06.02c.01-.07.03-.14.04-.21Z"/><path class="cls-186" d="M28.79,14.24h.04c0,.06,0,.09-.03.14t-.03.03c-.02-.07,0-.1.02-.17Z"/><path class="cls-135" d="M48.15,14.22h.06s.01.08.02.11h-.06s-.01-.08-.02-.11Z"/><path class="cls-213" d="M48.38,13.54v.04h-.04v.04s-.05-.01-.08-.02v-.04s.04-.02.11-.02Z"/><path class="cls-212" d="M46.41,11.85h.06v.04h-.06s-.01.06-.02.09c-.01,0-.03-.01-.04-.02.01-.05.02-.07.06-.11Z"/><path class="cls-55" d="M47.03,11.06c.06.02.09.03.13.08h-.15l.02-.08Z"/><path class="cls-19" d="M47.3,10.39h.05v.02h-.09s-.01.04-.02.06t-.08.04.13-.12Z"/><path class="cls-125" d="M44.06,8.06c.07.03.13.06.19.09l-.04.02s-.04-.01-.08-.04c-.01,0-.03-.01-.04-.02-.01,0-.02-.01-.03-.02v-.04Z"/><path class="cls-43" d="M41.73,5.85s-.01.04-.04.08q-.06.01-.11.02t.15-.09Z"/><path class="cls-64" d="M44.06,4.62l.04.02s-.01.05-.02.08c-.01,0-.03-.01-.04-.02v.06h-.04q.04-.11.06-.13Z"/></svg>